<?xml version="1.0" encoding="UTF-8" standalone="no"?>
<svg width="108px" height="42px" viewBox="0 0 108 42" version="1.1" xmlns="http://www.w3.org/2000/svg" xmlns:xlink="http://www.w3.org/1999/xlink">
    <!-- Generator: Sketch 3.6.1 (26313) - http://www.bohemiancoding.com/sketch -->
    <title>Shape</title>
    <desc>Created with Sketch.</desc>
    <defs></defs>
    <g id="Page-1" stroke="none" stroke-width="1" fill="none" fill-rule="evenodd">
        <g id="Da-Nang" transform="translate(-1221.000000, -214.000000)" fill="#FFFFFF">
            <path d="M1328.3682,232.162125 L1328.3682,230.184125 C1321.3536,226.604375 1315.9968,220.93375 1313.5236,214.0645 L1313.421,214.1075 L1313.421,214 L1306.455,214 L1306.455,214.05375 L1306.3848,214.026875 C1302.0324,226.099125 1289.2776,232.45775 1274.622,232.45775 C1259.9718,232.45775 1247.217,226.1045 1242.8646,214.05375 L1242.7296,214.1075 L1242.7296,214 L1235.796,214 L1235.796,214.274125 C1233.2688,221.046625 1227.9552,226.658125 1221,230.1895 L1221,232.162125 C1222.2528,231.581625 1223.4246,230.872125 1224.5802,230.151875 L1224.5802,239.4775 L1221.0486,239.4775 L1221.0486,243.277625 L1235.796,243.277625 L1235.796,255.968 L1242.7296,255.968 L1242.7296,243.277625 L1306.455,243.277625 L1306.455,255.968 L1313.421,255.968 L1313.421,243.277625 L1328.3682,243.277625 L1328.3682,239.48825 L1324.842,239.48825 L1324.842,230.168 C1325.9814,230.86675 1327.1316,231.570875 1328.3682,232.162125 L1328.3682,232.162125 Z M1230.963,239.48825 L1225.5414,239.48825 L1225.5414,229.625125 C1227.5502,228.292125 1229.3268,226.711875 1230.963,225.0295 L1230.963,239.48825 L1230.963,239.48825 Z M1235.796,239.48825 L1231.9188,239.48825 L1231.9188,223.992125 C1233.393,222.358125 1234.7322,220.627375 1235.796,218.746125 L1235.796,239.48825 L1235.796,239.48825 Z M1246.974,239.48825 L1242.7296,239.48825 L1242.7296,218.380625 C1243.8744,220.519875 1245.3486,222.37425 1246.974,224.07275 L1246.974,239.48825 L1246.974,239.48825 Z M1254.6852,239.48825 L1247.9406,239.48825 L1247.9406,225.110125 C1249.9224,226.97525 1252.2012,228.507125 1254.6852,229.786375 L1254.6852,239.48825 L1254.6852,239.48825 Z M1262.4018,239.48825 L1255.6572,239.48825 L1255.6572,230.30775 C1257.7578,231.312875 1260.042,232.054625 1262.4018,232.656625 L1262.4018,239.48825 L1262.4018,239.48825 Z M1270.1184,239.48825 L1263.3684,239.48825 L1263.3684,232.92 C1265.55,233.42525 1267.7856,233.8015 1270.1184,233.995 L1270.1184,239.48825 L1270.1184,239.48825 Z M1277.835,239.48825 L1271.085,239.48825 L1271.085,234.038 C1272.2568,234.129375 1273.4232,234.215375 1274.622,234.215375 C1275.7074,234.215375 1276.7712,234.124 1277.835,234.07025 L1277.835,239.48825 L1277.835,239.48825 Z M1285.5462,239.48825 L1278.7962,239.48825 L1278.7962,234.011125 C1281.1236,233.83375 1283.3646,233.48975 1285.5462,233.000625 L1285.5462,239.48825 L1285.5462,239.48825 Z M1293.2574,239.48825 L1286.5128,239.48825 L1286.5128,232.764125 C1288.878,232.172875 1291.146,231.431125 1293.2574,230.45825 L1293.2574,239.48825 L1293.2574,239.48825 Z M1300.9794,239.48825 L1294.2186,239.48825 L1294.2186,229.969125 C1296.708,228.73825 1298.9868,227.244 1300.9794,225.44875 L1300.9794,239.48825 L1300.9794,239.48825 Z M1306.455,239.48825 L1301.9352,239.48825 L1301.9352,224.432875 C1303.6848,222.680625 1305.2346,220.734875 1306.455,218.48275 L1306.455,239.48825 L1306.455,239.48825 Z M1317.4926,239.48825 L1313.421,239.48825 L1313.421,218.386 C1314.5064,220.412375 1315.9374,222.261375 1317.4926,224.00825 L1317.4926,239.48825 L1317.4926,239.48825 Z M1323.897,239.48825 L1318.4538,239.48825 L1318.4538,225.04025 C1320.1008,226.71725 1321.8828,228.28675 1323.897,229.61975 L1323.897,239.48825 L1323.897,239.48825 Z" id="Shape"></path>
        </g>
    </g>
</svg>