<?xml version="1.0" encoding="UTF-8" standalone="no"?>
<svg width="13px" height="15px" viewBox="0 0 13 15" version="1.1" xmlns="http://www.w3.org/2000/svg" xmlns:xlink="http://www.w3.org/1999/xlink" xmlns:sketch="http://www.bohemiancoding.com/sketch/ns">
    <!-- Generator: Sketch 3.5.2 (25235) - http://www.bohemiancoding.com/sketch -->
    <title>Page 1</title>
    <desc>Created with Sketch.</desc>
    <defs></defs>
    <g id="Page-1" stroke="none" stroke-width="1" fill="none" fill-rule="evenodd" sketch:type="MSPage">
        <g id="Home_Slider_1-Copy" sketch:type="MSArtboardGroup" transform="translate(-1480.000000, -125.000000)" fill="#000000">
            <g id="Group-4-Copy" sketch:type="MSLayerGroup" transform="translate(1302.000000, 123.000000)">
                <path d="M190,17 L179,17 C178.729165,17 178.494793,16.8976303 178.296875,16.6928879 C178.098957,16.4881456 178,16.245691 178,15.9655172 L178,4.5862069 C178,4.29525655 178.098957,4.05010897 178.296875,3.85075379 C178.494793,3.65140069 178.729165,3.55172414 179,3.55172414 L180,3.55172414 L180,4.06896552 C180,4.50000138 180.145832,4.86637793 180.4375,5.16810345 C180.729168,5.46982897 181.083332,5.62068966 181.5,5.62068966 C181.916668,5.62068966 182.270832,5.46982897 182.5625,5.16810345 C182.854168,4.86637793 183,4.50000138 183,4.06896552 L183,3.55172414 L186,3.55172414 L186,4.06896552 C186,4.50000138 186.145832,4.86637793 186.4375,5.16810345 C186.729168,5.46982897 187.083332,5.62068966 187.5,5.62068966 C187.916668,5.62068966 188.270832,5.46982897 188.5625,5.16810345 C188.854168,4.86637793 189,4.50000138 189,4.06896552 L189,3.55172414 L190,3.55172414 C190.270834,3.55172414 190.505208,3.65140069 190.703124,3.85075379 C190.901042,4.05010897 191,4.29525655 191,4.5862069 L191,15.9655172 C191,16.245691 190.901042,16.4881456 190.703124,16.6928879 C190.505208,16.8976303 190.270834,17 190,17 L190,17 Z M190,7.17241379 L179,7.17241379 L179,15.9655172 L190,15.9655172 L190,7.17241379 Z M181.5,9.75862069 L180,9.75862069 L180,8.20689655 L181.5,8.20689655 L181.5,9.75862069 Z M181.5,12.3448276 L180,12.3448276 L180,10.7931034 L181.5,10.7931034 L181.5,12.3448276 Z M181.5,14.9310345 L180,14.9310345 L180,13.3793103 L181.5,13.3793103 L181.5,14.9310345 Z M184,9.75862069 L182.5,9.75862069 L182.5,8.20689655 L184,8.20689655 L184,9.75862069 Z M184,12.3448276 L182.5,12.3448276 L182.5,10.7931034 L184,10.7931034 L184,12.3448276 Z M184,14.9310345 L182.5,14.9310345 L182.5,13.3793103 L184,13.3793103 L184,14.9310345 Z M186.5,9.75862069 L185,9.75862069 L185,8.20689655 L186.5,8.20689655 L186.5,9.75862069 Z M186.5,12.3448276 L185,12.3448276 L185,10.7931034 L186.5,10.7931034 L186.5,12.3448276 Z M186.5,14.9310345 L185,14.9310345 L185,13.3793103 L186.5,13.3793103 L186.5,14.9310345 Z M189,9.75862069 L187.5,9.75862069 L187.5,8.20689655 L189,8.20689655 L189,9.75862069 Z M189,12.3448276 L187.5,12.3448276 L187.5,10.7931034 L189,10.7931034 L189,12.3448276 Z M189,14.9310345 L187.5,14.9310345 L187.5,13.3793103 L189,13.3793103 L189,14.9310345 Z M187.484376,5.10344828 C187.21354,5.10344828 186.981772,5.00377172 186.789062,4.80441862 C186.596354,4.60506345 186.5,4.36530345 186.5,4.08512828 L186.5,3.01832 C186.5,2.73814483 186.596354,2.49838483 186.789062,2.29902966 C186.981772,2.09967655 187.21354,2 187.484376,2 C187.75521,2 187.986978,2.09967655 188.179688,2.29902966 C188.372396,2.49838483 188.46875,2.73814483 188.46875,3.01832 L188.46875,4.08512828 C188.46875,4.36530345 188.372396,4.60506345 188.179688,4.80441862 C187.986978,5.00377172 187.75521,5.10344828 187.484376,5.10344828 L187.484376,5.10344828 Z M181.484376,5.10344828 C181.21354,5.10344828 180.981772,5.00377172 180.789062,4.80441862 C180.596354,4.60506345 180.5,4.36530345 180.5,4.08512828 L180.5,3.01832 C180.5,2.73814483 180.596354,2.49838483 180.789062,2.29902966 C180.981772,2.09967655 181.21354,2 181.484376,2 C181.75521,2 181.986978,2.09967655 182.179688,2.29902966 C182.372396,2.49838483 182.46875,2.73814483 182.46875,3.01832 L182.46875,4.08512828 C182.46875,4.36530345 182.372396,4.60506345 182.179688,4.80441862 C181.986978,5.00377172 181.75521,5.10344828 181.484376,5.10344828 L181.484376,5.10344828 Z" id="Page-1" sketch:type="MSShapeGroup"></path>
            </g>
        </g>
    </g>
</svg>