<?xml version="1.0" encoding="UTF-8" standalone="no"?>
<svg width="26px" height="20px" viewBox="0 0 26 20" version="1.1" xmlns="http://www.w3.org/2000/svg" xmlns:xlink="http://www.w3.org/1999/xlink">
    <!-- Generator: Sketch 3.6.1 (26313) - http://www.bohemiancoding.com/sketch -->
    <title>Page 1</title>
    <desc>Created with Sketch.</desc>
    <defs></defs>
    <g id="Page-1" stroke="none" stroke-width="1" fill="none" fill-rule="evenodd">
        <g id="Da-Nang" transform="translate(-498.000000, -327.000000)" fill="#000000">
            <path d="M521.545455,342.454545 L500.636364,342.454545 C500.143937,342.454545 499.717805,342.274622 499.357955,341.914771 C498.998104,341.554924 498.818182,341.128789 498.818182,340.636364 L498.818182,336.090909 C498.818182,335.598484 498.998104,335.172349 499.357955,334.812502 C499.717805,334.452651 500.143937,334.272727 500.636364,334.272727 L501.545455,334.272727 C501.545455,334.272727 501.616477,334.054927 501.758523,333.619316 C501.900569,333.183709 502.071022,332.667618 502.269887,332.071022 C502.468753,331.474429 502.662876,330.868375 502.852273,330.25284 C503.041669,329.637309 503.183713,329.159091 503.278407,328.818182 C503.486742,328.13636 503.718749,327.66288 503.974433,327.397727 C504.230116,327.132575 504.604164,327 505.096589,327 L517.085229,327 C517.577655,327 517.937498,327.108902 518.164771,327.326705 C518.392047,327.544509 518.638255,328.041662 518.903411,328.818182 C519.149622,329.594702 519.499996,330.697909 519.954545,332.12784 C520.409095,333.557771 520.636364,334.272727 520.636364,334.272727 L521.545455,334.272727 C522.03788,334.272727 522.464015,334.452651 522.823862,334.812502 C523.183713,335.172349 523.363636,335.598484 523.363636,336.090909 L523.363636,340.636364 C523.363636,341.128789 523.183713,341.554924 522.823862,341.914771 C522.464015,342.274622 522.03788,342.454545 521.545455,342.454545 L521.545455,342.454545 Z M505.181818,340.636364 L517,340.636364 L517,339.727273 L505.181818,339.727273 L505.181818,340.636364 Z M517,334.272727 C517,333.780302 516.820076,333.335229 516.460225,332.937498 C516.100378,332.539771 515.674244,332.340909 515.181818,332.340909 C514.689393,332.340909 514.263258,332.539771 513.903411,332.937498 C513.54356,333.335229 513.363636,333.780302 513.363636,334.272727 C513.363636,334.291665 513.969691,334.301135 515.181818,334.301135 C516.393945,334.301135 517,334.291665 517,334.272727 L517,334.272727 Z M505.181818,338.818182 L517,338.818182 L517,337.909091 L505.181818,337.909091 L505.181818,338.818182 Z M505.181818,337 L517,337 L517,336.090909 L505.181818,336.090909 L505.181818,337 Z M500.693182,337.909091 C500.693182,338.401516 500.868369,338.827651 501.21875,339.187498 C501.569131,339.547349 501.999997,339.727273 502.511364,339.727273 C503.003789,339.727273 503.429924,339.547349 503.789775,339.187498 C504.149622,338.827651 504.329545,338.401516 504.329545,337.909091 C504.329545,337.416665 504.149622,336.990531 503.789775,336.630684 C503.429924,336.270833 503.003789,336.090909 502.511364,336.090909 C501.999997,336.090909 501.569131,336.270833 501.21875,336.630684 C500.868369,336.990531 500.693182,337.416665 500.693182,337.909091 L500.693182,337.909091 Z M517.99432,328.818182 C517.88068,328.496211 517.762313,328.264204 517.639204,328.12216 C517.516098,327.980113 517.33144,327.909091 517.085229,327.909091 L511.545455,327.909091 L511.545455,328.818182 L512,328.818182 C512.132578,328.818182 512.241476,328.860796 512.326705,328.946022 C512.411931,329.031251 512.454545,329.140149 512.454545,329.272727 C512.454545,329.405305 512.411931,329.514204 512.326705,329.599433 C512.241476,329.684658 512.132578,329.727273 512,329.727273 L510.181818,329.727273 C510.04924,329.727273 509.940342,329.684658 509.855113,329.599433 C509.769887,329.514204 509.727273,329.405305 509.727273,329.272727 C509.727273,329.140149 509.769887,329.031251 509.855113,328.946022 C509.940342,328.860796 510.04924,328.818182 510.181818,328.818182 L510.636364,328.818182 L510.636364,327.909091 L505.096589,327.909091 C504.850378,327.909091 504.66572,327.961175 504.542615,328.065342 C504.419505,328.169509 504.301138,328.420451 504.187498,328.818182 C504.13068,329.007578 504.007578,329.400564 503.818182,329.99716 C503.628785,330.593753 503.434662,331.209276 503.235796,331.843749 C503.036931,332.478222 502.857007,333.041665 502.696022,333.534091 C502.535036,334.026516 502.454545,334.272727 502.454545,334.272727 L512.880684,334.272727 C512.880684,333.647724 513.103218,333.089018 513.548295,332.596589 C513.993375,332.104164 514.528407,331.857956 515.153411,331.857956 C515.759473,331.857956 516.285036,332.104164 516.730113,332.596589 C517.175193,333.089018 517.397727,333.647724 517.397727,334.272727 L519.727273,334.272727 C519.727273,334.272727 519.646782,334.017047 519.485796,333.50568 C519.324811,332.994316 519.144887,332.416669 518.946022,331.772727 C518.747156,331.128785 518.553033,330.513262 518.363636,329.926138 C518.17424,329.339011 518.051138,328.969698 517.99432,328.818182 L517.99432,328.818182 Z M519.670455,336.147727 C519.178029,336.147727 518.751895,336.322916 518.392044,336.673295 C518.032196,337.023676 517.852273,337.454542 517.852273,337.965909 C517.852273,338.458335 518.032196,338.884469 518.392044,339.24432 C518.751895,339.604167 519.178029,339.784091 519.670455,339.784091 C520.181822,339.784091 520.612687,339.604167 520.963069,339.24432 C521.313447,338.884469 521.488636,338.458335 521.488636,337.965909 C521.488636,337.454542 521.313447,337.023676 520.963069,336.673295 C520.612687,336.322916 520.181822,336.147727 519.670455,336.147727 L519.670455,336.147727 Z M503.363636,345.636364 C503.363636,346.015153 503.231062,346.33712 502.965909,346.602273 C502.700756,346.867426 502.37879,347 502,347 C501.62121,347 501.299244,346.867426 501.034091,346.602273 C500.768938,346.33712 500.636364,346.015153 500.636364,345.636364 L500.636364,343.363636 L503.363636,343.363636 L503.363636,345.636364 Z M521.545455,345.636364 C521.545455,346.015153 521.41288,346.33712 521.147727,346.602273 C520.882575,346.867426 520.560607,347 520.181818,347 C519.803029,347 519.481062,346.867426 519.215909,346.602273 C518.950756,346.33712 518.818182,346.015153 518.818182,345.636364 L518.818182,343.363636 L521.545455,343.363636 L521.545455,345.636364 Z" id="Page-1"></path>
        </g>
    </g>
</svg>