<?xml version="1.0" encoding="UTF-8" standalone="no"?>
<svg width="31px" height="31px" viewBox="0 0 31 31" version="1.1" xmlns="http://www.w3.org/2000/svg" xmlns:xlink="http://www.w3.org/1999/xlink" xmlns:sketch="http://www.bohemiancoding.com/sketch/ns">
    <!-- Generator: Sketch 3.5.2 (25235) - http://www.bohemiancoding.com/sketch -->
    <title>Page 1</title>
    <desc>Created with Sketch.</desc>
    <defs></defs>
    <g id="Page-1" stroke="none" stroke-width="1" fill="none" fill-rule="evenodd" sketch:type="MSPage">
        <g id="Rooms_Detail_Fullscreen" sketch:type="MSArtboardGroup" transform="translate(-1545.000000, -17.000000)" fill="#FFFFFF">
            <path d="M1571.45433,21.5456731 C1574.48479,24.5761377 1576,28.2275418 1576,32.5 C1576,36.7724582 1574.48479,40.4238623 1571.45433,43.4543269 C1568.42386,46.4847906 1564.77246,48 1560.5,48 C1556.22754,48 1552.57614,46.4847906 1549.54567,43.4543269 C1546.51521,40.4238623 1545,36.7724582 1545,32.5 C1545,28.2275418 1546.51521,24.5761377 1549.54567,21.5456731 C1552.57614,18.5152085 1556.22754,17 1560.5,17 C1564.77246,17 1568.42386,18.5152085 1571.45433,21.5456731 L1571.45433,21.5456731 Z M1570.5601,42.5600962 C1573.29248,39.8277085 1574.65865,36.4743812 1574.65865,32.5 C1574.65865,28.5256188 1573.29248,25.1722915 1570.5601,22.4399038 C1567.82771,19.7075162 1564.47438,18.3413462 1560.5,18.3413462 C1556.52562,18.3413462 1553.17229,19.7075162 1550.4399,22.4399038 C1547.70752,25.1722915 1546.34135,28.5256188 1546.34135,32.5 C1546.34135,36.4743812 1547.70752,39.8277085 1550.4399,42.5600962 C1553.17229,45.2924815 1556.52562,46.6586538 1560.5,46.6586538 C1564.47438,46.6586538 1567.82771,45.2924815 1570.5601,42.5600962 L1570.5601,42.5600962 Z M1566.75962,25.3461538 L1567.65385,26.2403846 L1561.39423,32.5 L1567.65385,38.7596154 L1566.75962,39.6538462 L1560.5,33.3942308 L1554.24038,39.6538462 L1553.34615,38.7596154 L1559.60577,32.5 L1553.34615,26.2403846 L1554.24038,25.3461538 L1560.5,31.6057692 L1566.75962,25.3461538 Z" id="Page-1" sketch:type="MSShapeGroup"></path>
        </g>
    </g>
</svg>