<?xml version="1.0" encoding="UTF-8" standalone="no"?>
<svg width="83px" height="80px" viewBox="0 0 83 80" version="1.1" xmlns="http://www.w3.org/2000/svg" xmlns:xlink="http://www.w3.org/1999/xlink" xmlns:sketch="http://www.bohemiancoding.com/sketch/ns">
    <!-- Generator: Sketch 3.5.2 (25235) - http://www.bohemiancoding.com/sketch -->
    <title>coffee-cup</title>
    <desc>Created with Sketch.</desc>
    <defs></defs>
    <g id="Page-1" stroke="none" stroke-width="1" fill="none" fill-rule="evenodd" sketch:type="MSPage">
        <g id="Restaurant" sketch:type="MSArtboardGroup" transform="translate(-1243.000000, -690.000000)" fill="#F8F8F8">
            <g id="coffee-cup" sketch:type="MSLayerGroup" transform="translate(1243.000000, 690.000000)">
                <g id="Capa_1" sketch:type="MSShapeGroup">
                    <g id="Group">
                        <path d="M72.3340952,42.6653171 L66.6606044,42.6653171 L66.9603311,36.3531315 C66.9942624,35.6377621 66.7345573,34.9394149 66.2421181,34.4213286 C65.7496789,33.9032423 65.0667023,33.6099365 64.3532746,33.6099365 L6.93408437,33.6099365 C6.22022158,33.6099365 5.53768001,33.9032423 5.04524084,34.4213286 C4.55280167,34.9398514 4.29309656,35.6377621 4.32702788,36.3531315 L5.48591299,60.7446528 C5.77215414,66.772262 9.45196238,71.8440084 14.6221386,74.1481176 L3.49571052,74.1481176 C2.05449942,74.1481176 0.885608914,75.3209044 0.885608914,76.7669196 C0.885608914,78.2129347 2.05449942,79.3857215 3.49571052,79.3857215 L68.1596727,79.3857215 C69.6008838,79.3857215 70.7697743,78.2129347 70.7697743,76.7669196 C70.7697743,75.3209044 69.6008838,74.1481176 68.1596727,74.1481176 L56.6656553,74.1481176 C60.8566085,72.2800389 64.0652934,68.5932022 65.2833408,64.0521997 L72.3340952,64.0521997 C78.210739,64.0521997 82.9920101,59.254991 82.9920101,53.3587584 C82.9920101,47.4625258 78.210739,42.6653171 72.3340952,42.6653171 L72.3340952,42.6653171 Z M50.3996714,70.2417381 L20.8881226,70.2417381 C15.4347503,70.2417381 10.9597311,65.9604334 10.700026,60.4949937 L9.67164594,38.8466674 L61.615713,38.8466674 L60.587768,60.4949937 C60.3280629,65.9604334 55.8530437,70.2417381 50.3996714,70.2417381 L50.3996714,70.2417381 Z M72.3340952,58.8145958 L65.8936695,58.8145958 L66.4122097,47.897247 C66.4509262,47.8989928 66.4892077,47.902921 66.5283592,47.902921 L72.3340952,47.902921 C75.332667,47.902921 77.7718069,50.3501914 77.7718069,53.3587584 C77.7718069,56.3673254 75.332667,58.8145958 72.3340952,58.8145958 L72.3340952,58.8145958 Z" id="Shape"></path>
                        <path d="M28.2120425,28.80391 C28.6287887,29.0509504 29.0859915,29.1687964 29.5375391,29.1687964 C30.4301938,29.1687964 31.2997927,28.7087602 31.7870116,27.8820918 C32.5208852,26.6368514 32.1093592,25.0310894 30.8682559,24.295206 C29.4170394,23.4344931 28.4138903,21.8466262 28.1163388,19.9392655 C27.8066067,17.9533406 28.3238418,15.9752722 29.4988226,14.6488491 C29.509263,14.6370645 29.5197034,14.6252798 29.5297088,14.6130588 C29.8137748,14.2804709 30.0978409,13.9535571 30.3792968,13.6292622 C32.7936408,10.8472216 35.290638,7.97134057 36.0075459,3.78562213 C36.2520255,2.36012094 35.2980333,1.00576387 33.877703,0.760905884 C32.4569377,0.516047902 31.1070802,1.47234708 30.8630357,2.89784827 C30.3936524,5.6371151 28.5626661,7.74656007 26.4428286,10.1890293 C26.1570225,10.5181255 25.8690413,10.8502768 25.5810601,11.1872294 C23.3924899,13.6698536 22.4123967,17.2418995 22.959213,20.7480388 C23.497764,24.2074762 25.4127085,27.1435896 28.2120425,28.80391 L28.2120425,28.80391 Z" id="Shape"></path>
                        <path d="M36.3332849,22.8902849 C37.1950535,25.116703 38.7324033,27.1558768 40.6625734,28.6320082 C41.1350018,28.9934028 41.6909535,29.1684261 42.24299,29.1684261 C43.0295006,29.1684261 43.8073109,28.813142 44.3206308,28.1370546 C45.1945799,26.9869641 44.9735913,25.3436659 43.8268866,24.4668037 C42.6680015,23.5803392 41.7100942,22.3150214 41.1993843,20.9947088 C40.1818797,18.3658681 41.1458773,15.7461932 44.4232948,12.2348163 C46.7467203,9.74520854 48.2318681,6.8130233 48.717782,3.75426263 C48.9444258,2.32614264 47.9747731,0.983570172 46.5509627,0.755734403 C45.1275873,0.527898634 43.7894752,1.50122002 43.5623963,2.92977648 C43.2365686,4.98073487 42.244295,6.9068637 40.6129815,8.654914 C38.9011899,10.4885118 33.6931671,16.0687423 36.3332849,22.8902849 L36.3332849,22.8902849 Z" id="Shape"></path>
                    </g>
                </g>
            </g>
        </g>
    </g>
</svg>