<?xml version="1.0" encoding="UTF-8" standalone="no"?>
<svg width="116px" height="78px" viewBox="0 0 116 78" version="1.1" xmlns="http://www.w3.org/2000/svg" xmlns:xlink="http://www.w3.org/1999/xlink" xmlns:sketch="http://www.bohemiancoding.com/sketch/ns">
    <!-- Generator: Sketch 3.5.2 (25235) - http://www.bohemiancoding.com/sketch -->
    <title>salad-bowl-hand-drawn-food</title>
    <desc>Created with Sketch.</desc>
    <defs></defs>
    <g id="Page-1" stroke="none" stroke-width="1" fill="none" fill-rule="evenodd" sketch:type="MSPage">
        <g id="Restaurant" sketch:type="MSArtboardGroup" transform="translate(-1217.000000, -383.000000)" fill="#FFFFFF">
            <g id="salad-bowl-hand-drawn-food" sketch:type="MSLayerGroup" transform="translate(1221.000000, 385.000000)">
                <g id="Capa_1" sketch:type="MSShapeGroup">
                    <path d="M106.903687,20.8865323 C104.207625,19.5339516 101.154375,18.8384677 98.22825,19.1387903 C99.1456875,16.7683871 99.415125,13.8684677 97.6089375,12.2387097 C95.00175,9.88693548 91.6599375,10.9346774 88.7968125,12.3358065 C87.744375,10.3345968 86.6025,8.23516129 86.21325,6.07080645 C85.9719375,4.72669355 84.1483125,4.73008065 83.516625,5.71685484 C82.4079375,7.44879032 80.902125,8.73758065 79.394625,10.0602419 C77.574375,7.66556452 74.8141875,4.82096774 71.8126875,6.14758065 C71.494875,6.28814516 71.2141875,6.45637097 70.950375,6.63701613 C67.3588125,1.49709677 62.4616875,1.73814516 58.041,6.39370968 C53.0904375,-0.81516129 45.873,-2.07798387 40.6665,5.59491935 C34.3738125,1.1233871 27.4134375,2.19766129 28.832625,10.9414516 C25.1398125,11.1141935 22.1833125,14.7479839 20.3923125,17.7258065 C18.35775,15.5309677 15.276375,13.1137097 12.46725,14.0474194 C9.4044375,15.0652419 8.5370625,18.0820161 8.497125,21.0231452 C6.316875,20.7962097 3.9864375,20.8035484 2.037375,19.9827419 C1.319625,19.6807258 0.5709375,20.4253226 0.56475,21.1083871 C0.54225,23.5674194 0.6204375,26.1320161 2.2134375,28.1191129 C3.070125,29.1877419 4.6006875,29.4931452 6.0654375,29.6681452 C5.6739375,30.0666935 5.3285625,30.5132258 5.063625,31.0269355 C3.7580625,33.5599194 4.714875,36.4620968 6.1644375,38.6958871 C7.117875,40.1647581 9.46575,38.8082258 8.5156875,37.3167742 C6.9136875,34.8024194 6.5064375,30.921371 10.3618125,30.4720161 C11.8006875,30.3043548 13.1113125,30.8265323 14.076,31.8940323 C15.5199375,33.4916129 15.229125,35.9884677 14.9979375,37.9479032 C12.1528125,38.0760484 9.4483125,38.586371 7.0295625,39.7278226 C6.91875,39.7797581 6.881625,39.8678226 6.831,39.9491129 C6.54975,39.5014516 6.25725,39.0707258 5.9833125,38.6129032 C5.351625,37.5555645 3.9099375,38.2928226 4.10175,39.408871 C7.8451875,61.1591129 33.9316875,69.8091935 52.950375,69.8396774 C74.4609375,69.8746774 97.407,58.7570968 104.846625,37.4607258 C105.5655,35.4030645 103.318875,34.3175 101.773687,35.0671774 C101.310187,34.7329839 100.681875,34.5540323 99.8955,34.6635484 C98.9083125,34.8012903 97.925625,34.9559677 96.9418125,35.106129 C99.3616875,30.3794355 102.246187,26.5503226 106.902,23.5849194 C107.829562,22.9933065 107.996625,21.4346774 106.903687,20.8865323 L106.903687,20.8865323 Z M40.04775,8.56145161 C40.7019375,9.16435484 41.7245625,9.06274194 42.1959375,8.28370968 C46.15875,1.73701613 53.1118125,3.31766129 56.6465625,9.42403226 C57.223125,10.4192742 58.44375,10.2267742 59.056875,9.42403226 C63.946125,6.21193548 67.3295625,5.9816129 69.2488125,8.64951613 C68.108625,11.0656452 68.5861875,14.4008065 69.2218125,16.8728226 C69.319125,17.2493548 69.543,17.4525806 69.80175,17.5429032 C69.17625,18.0944355 68.5665,18.7176613 68.00625,19.4887903 C67.1844375,18.0769355 66.367125,16.6368548 65.94975,15.0985484 C65.6960625,14.1620161 64.263375,13.6014516 63.5866875,14.4719355 C61.6078125,17.0184677 59.200875,18.7803226 57.5330625,21.4239516 C55.4270625,19.5514516 52.4469375,17.2894355 49.8358125,18.4568548 C46.39275,19.9968548 47.34,24.0049194 48.231,26.9172581 C48.4869375,27.7544355 49.647375,27.3959677 49.5118125,26.5627419 C48.2686875,23.5725 49.4325,21.753629 53.004375,21.106129 C54.4921875,21.9466935 55.8208125,22.9859677 56.9896875,24.2245161 C57.528,24.7291935 58.5444375,24.71 58.9021875,23.9772581 C60.058125,21.6125 62.200125,19.9556452 64.07325,18.1164516 C64.8523125,19.7778226 65.8805625,21.3437903 66.747375,22.9408065 C67.2328125,23.836129 68.68125,23.8705645 69.1576875,22.9408065 C70.53975,20.2418548 72.31725,17.7816935 75.6140625,17.6112097 C80.0004375,17.3837097 79.5853125,23.1372581 79.047,25.9180645 C69.8743125,22.2808871 55.3156875,28.1168548 59.085,40.9754032 C58.6771875,41.0120968 58.267125,41.0301613 57.85875,41.0629032 C55.1683125,35.7558871 51.5716875,28.7496774 46.6813125,27.6206452 C47.49525,24.6755645 47.057625,21.2410484 45.4685625,18.7690323 C43.376625,15.5140323 39.39975,15.8527419 36.2053125,17.0427419 C35.123625,14.1693548 33.5469375,11.6662903 30.4745625,11.0509677 C30.5668125,5.68016129 36.3898125,5.18846774 40.04775,8.56145161 L40.04775,8.56145161 Z M29.683125,39.4850806 C25.716375,38.7619355 21.6005625,38.0591129 17.6619375,37.9366129 C17.9803125,35.7846774 17.6889375,33.4645161 16.776,31.5812903 C16.7911875,31.5626613 16.7956875,31.5344355 16.8103125,31.5152419 C20.370375,29.8267742 24.0013125,28.943871 27.9241875,29.9069355 C30.2180625,30.4703226 31.87125,31.8347581 33.339375,33.4492742 C31.4983125,34.581129 30.1055625,36.3520161 29.631375,38.7771774 C29.5801875,39.043629 29.615625,39.2739516 29.683125,39.4850806 L29.683125,39.4850806 Z M17.13825,30.2879839 C18.3740625,25.5454839 23.7189375,25.4201613 27.86625,26.4120161 C31.6603125,27.3191935 34.61625,29.3491935 37.0929375,32.0899194 C36.610875,32.1678226 36.1395,32.2812903 35.6776875,32.4190323 C31.2744375,26.8162097 23.349375,27.0470968 17.13825,30.2879839 L17.13825,30.2879839 Z M32.1935625,39.4867742 C32.7110625,37.6554839 33.7179375,36.4282258 35.2265625,35.698871 C35.4279375,35.9489516 35.6293125,36.1990323 35.832375,36.4474194 C36.59625,37.3805645 37.7848125,36.1928226 37.3708125,35.2568548 C37.344375,35.1975806 37.310625,35.1473387 37.283625,35.088629 C38.8366875,34.8526613 40.3509375,35.1591935 41.8651875,35.4696774 C43.2309375,37.4037097 44.47125,39.4303226 45.768375,41.4162903 C43.6905,41.3592742 41.605875,41.2593548 39.506625,41.056129 C37.1728125,40.8297581 34.6275,40.3860484 31.9843125,39.9039516 C32.067,39.7825806 32.14575,39.6555645 32.1935625,39.4867742 L32.1935625,39.4867742 Z M44.2951875,35.8495968 C44.3244375,35.8518548 44.353125,35.8575 44.382375,35.8597581 C45.6496875,35.9410484 45.9950625,34.1690323 45.0028125,33.5621774 C44.1061875,33.0134677 43.12125,32.6154839 42.1025625,32.3405645 C41.8674375,32.0170968 41.662125,31.6778226 41.40675,31.3656452 C42.0868125,30.8124194 42.7365,30.4449194 43.37325,30.1620968 C43.3164375,31.2414516 44.731125,31.3379839 45.2570625,30.6340323 C45.473625,30.345 45.6463125,30.0237903 45.8240625,29.7065323 C47.6960625,29.8764516 49.4026875,31.2273387 51.0159375,33.5723387 C52.6719375,35.978871 53.886375,38.6501613 55.2110625,41.2537097 C52.5031875,41.4168548 49.780125,41.4766935 47.0435625,41.4366129 C46.121625,39.5641129 45.264375,37.6735484 44.2951875,35.8495968 L44.2951875,35.8495968 Z M10.1469375,27.773629 C9.6654375,27.8199194 9.1940625,27.9283065 8.7350625,28.0705645 C8.728875,28.068871 8.7255,28.0643548 8.7193125,28.0626613 C7.497,27.7064516 6.2476875,27.4507258 5.034375,27.0645968 C3.191625,26.4780645 2.9739375,24.3904839 2.926125,22.5580645 C5.04225,22.8487903 7.174125,22.5332258 9.30375,23.2631452 C10.020375,23.5087097 10.5721875,22.8764516 10.648125,22.2357258 C10.91025,20.0115323 11.1526875,15.9001613 14.378625,16.52 C16.6696875,16.9603226 18.4640625,19.2189516 20.0008125,20.7956452 C21.0375,21.8591935 22.4184375,20.3807258 21.6646875,19.2545161 C25.3614375,13.6737097 32.247,10.1641129 34.0936875,19.2178226 C34.2298125,19.8862097 35.107875,20.4343548 35.76375,20.1690323 C39.1185,18.811371 42.773625,18.0475806 44.0775,22.3954839 C44.6011875,24.1409677 44.191125,25.9073387 43.803,27.6584677 C42.40125,28.0050806 40.908375,28.8377419 39.3148125,30.3054839 C33.20325,23.3224194 16.53975,18.9897581 15.7156875,29.9498387 C14.448375,28.4510484 12.6,27.5376613 10.1469375,27.773629 L10.1469375,27.773629 Z M99.3009375,39.3524194 C90.842625,56.8422581 71.8453125,64.855 52.952625,65.3523387 C32.995125,65.8784677 17.832375,56.9195968 7.3963125,40.8365323 C7.4345625,40.8354032 7.4649375,40.8625 7.504875,40.8534677 C12.004875,39.8074194 18.8611875,42.0479839 23.2498125,42.7400806 C29.3270625,43.6975 35.3953125,44.6989516 41.5063125,45.4164516 C61.1038125,47.7179839 80.0769375,42.0694355 99.3009375,39.3524194 L99.3009375,39.3524194 Z M69.8169375,31.8093548 C73.8748125,31.3504032 76.8864375,34.8103226 78.057,38.3148387 C73.773,39.0554839 69.49125,39.7481452 65.194875,40.2962903 C65.2005,40.2308065 65.20725,40.1658871 65.194875,40.0908065 C64.557,36.4649194 65.6055,32.2852419 69.8169375,31.8093548 L69.8169375,31.8093548 Z M93.4048125,35.3404032 C93.3643125,35.453871 93.37275,35.5577419 93.3615,35.6655645 C88.9981875,36.3791129 84.6579375,37.1620968 80.325,37.923629 C80.3154375,37.8468548 80.326125,37.7774194 80.299125,37.6955645 C78.7606875,32.9039516 74.496375,28.4758871 69.044625,29.5473387 C63.6766875,30.6024194 62.238375,35.7259677 63.977625,40.426129 C63.97875,40.4300806 63.982125,40.4323387 63.98325,40.4362903 C62.940375,40.5621774 61.898625,40.6948387 60.8535,40.8009677 C59.26275,33.9957258 63.1929375,29.0330645 69.85125,27.6070968 C76.6321875,26.1545968 81.5653125,29.8939516 83.62125,36.0748387 C84.040875,37.3354032 86.0495625,37.1767742 86.00175,35.751371 C85.87125,31.8443548 84.12075,29.051129 81.5709375,27.263871 C81.5923125,27.2085484 81.6294375,27.1729839 81.644625,27.1114516 C84.1134375,17.6558065 77.0461875,12.9183871 71.1669375,16.5233871 C71.1680625,16.4584677 71.184375,16.3997581 71.1748125,16.3308871 C70.912125,14.5650806 70.7265,12.8083065 71.1045,11.1119355 C71.978625,11.2084677 72.928125,10.2589516 72.4246875,9.19483871 C72.351,9.03846774 72.2705625,8.90637097 72.1951875,8.75677419 C74.1414375,6.95145161 77.628375,12.2533871 77.9911875,12.7919355 C78.5120625,13.5653226 79.4514375,13.6748387 80.1500625,13.071371 C81.534375,11.8762903 82.9051875,10.7771774 84.142125,9.52 C84.8986875,11.4557258 85.989375,13.3355645 86.8674375,15.1058871 C87.2420625,15.8612097 88.230375,16.0051613 88.91325,15.6444355 C90.2199375,14.9540323 94.681125,12.268629 95.6953125,14.9969355 C96.2060625,16.3715323 95.5456875,18.2310484 95.18625,19.8658871 C94.1563125,20.2683871 93.159,20.7995968 92.2381875,21.5470161 C87.9525,25.025 85.935375,30.5589516 87.5986875,35.9071774 C87.7876875,36.5157258 88.7799375,36.4321774 88.74,35.7525 C88.2365625,27.2175806 94.791375,20.2678226 102.853687,22.6116935 C98.5595625,25.8774194 95.259375,30.1406452 93.4048125,35.3404032 L93.4048125,35.3404032 Z" id="Shape"></path>
                </g>
            </g>
        </g>
    </g>
</svg>