<?xml version="1.0" encoding="utf-8"?>
<!-- Generator: Avocode 2.5.4 - http://avocode.com -->
<svg height="12" width="14" xmlns:xlink="http://www.w3.org/1999/xlink" xmlns="http://www.w3.org/2000/svg" viewBox="0 0 14 12">
    <path fill="#c1a753" fill-rule="evenodd" d="M 12.62 2.83 L 12.62 1.41 L 7 4.93 L 1.38 1.41 L 1.38 2.83 L 7 6.31 L 12.62 2.83 Z M 12.62 0 C 12.99 0 13.32 0.14 13.59 0.43 C 13.86 0.71 14 1.04 14 1.41 L 14 9.83 C 14 10.2 13.86 10.53 13.59 10.81 C 13.32 11.1 12.99 11.24 12.62 11.24 L 1.38 11.24 C 1.01 11.24 0.68 11.1 0.41 10.81 C 0.14 10.53 0 10.2 0 9.83 L 0 1.41 C 0 1.04 0.14 0.71 0.41 0.43 C 0.68 0.14 1.01 0 1.38 0 L 12.62 0 Z M 12.62 0" />
</svg>