<?xml version="1.0" encoding="UTF-8" standalone="no"?>
<svg width="30px" height="20px" viewBox="0 0 30 20" version="1.1" xmlns="http://www.w3.org/2000/svg" xmlns:xlink="http://www.w3.org/1999/xlink">
    <!-- Generator: Sketch 3.6.1 (26313) - http://www.bohemiancoding.com/sketch -->
    <title>Page 1</title>
    <desc>Created with Sketch.</desc>
    <defs></defs>
    <g id="Page-1" stroke="none" stroke-width="1" fill="none" fill-rule="evenodd">
        <g id="Da-Nang" transform="translate(-363.000000, -391.000000)" fill="#FFFFFF">
            <path d="M377.6875,397 C378.77084,397 379.708328,397.395828 380.5,398.1875 C381.291672,398.979172 381.6875,399.91666 381.6875,401 C381.6875,402.08334 381.291672,403.020828 380.5,403.8125 C379.708328,404.604172 378.77084,405 377.6875,405 C376.60416,405 375.666672,404.604172 374.875,403.8125 C374.083328,403.020828 373.6875,402.08334 373.6875,401 C373.6875,399.91666 374.083328,398.979172 374.875,398.1875 C375.666672,397.395828 376.60416,397 377.6875,397 L377.6875,397 Z M377.6875,407.6875 C379.520844,407.6875 381.093744,407.031256 382.406248,405.718752 C383.718756,404.406244 384.375,402.833344 384.375,401 C384.375,399.166656 383.718756,397.593756 382.406248,396.281248 C381.093744,394.968744 379.520844,394.3125 377.6875,394.3125 C375.854156,394.3125 374.281256,394.968744 372.968752,396.281248 C371.656244,397.593756 371,399.166656 371,401 C371,402.833344 371.656244,404.406244 372.968752,405.718752 C374.281256,407.031256 375.854156,407.6875 377.6875,407.6875 L377.6875,407.6875 Z M377.6875,391 C380.979184,391 383.95832,391.916656 386.625,393.75 C389.29168,395.583344 391.208328,397.999984 392.375,401 C391.208328,404.000016 389.29168,406.416656 386.625,408.25 C383.95832,410.083342 380.979184,411 377.6875,411 C374.395816,411 371.41668,410.083342 368.75,408.25 C366.08332,406.416656 364.166672,404.000016 363,401 C364.166672,397.999984 366.08332,395.583344 368.75,393.75 C371.41668,391.916656 374.395816,391 377.6875,391 L377.6875,391 Z" id="Page-1"></path>
        </g>
    </g>
</svg>