<?xml version="1.0" encoding="utf-8"?>
<!-- Generator: Avocode 2.5.4 - http://avocode.com -->
<svg height="15" width="17" xmlns:xlink="http://www.w3.org/1999/xlink" xmlns="http://www.w3.org/2000/svg" viewBox="0 0 17 15">
    <path fill="#ffffff" fill-rule="evenodd" d="M 4.55 15 C 5.9 15 6.97 14.67 7.75 14 C 8.54 13.33 8.93 12.54 8.93 11.64 C 8.93 10.97 8.82 10.41 8.58 9.96 C 8.35 9.51 7.95 9.06 7.37 8.63 C 7.11 8.44 6.85 8.2 6.59 7.92 C 6.34 7.63 6.21 7.38 6.21 7.17 C 6.21 6.92 6.26 6.7 6.36 6.53 C 6.46 6.36 6.68 6.13 7.04 5.85 C 7.88 5.16 8.3 4.35 8.3 3.43 C 8.3 2.83 8.17 2.28 7.92 1.78 C 7.66 1.29 7.32 0.95 6.87 0.76 L 8.3 0.76 L 9.3 0 L 4.85 0 C 3.83 0 2.93 0.34 2.14 1.02 C 1.36 1.7 0.96 2.49 0.96 3.39 C 0.96 4.34 1.28 5.14 1.91 5.8 C 2.54 6.46 3.35 6.79 4.35 6.79 C 4.5 6.79 4.64 6.78 4.75 6.76 C 4.62 7.06 4.55 7.34 4.55 7.62 C 4.55 8.06 4.75 8.49 5.15 8.9 L 4.76 8.9 L 4.38 8.9 C 3.17 8.9 2.13 9.24 1.28 9.92 C 0.43 10.61 0 11.39 0 12.26 C 0 13.07 0.44 13.73 1.33 14.24 C 2.21 14.75 3.29 15 4.55 15 L 4.55 15 Z M 5 6.3 C 4.43 6.28 3.91 5.99 3.44 5.42 C 2.96 4.86 2.67 4.18 2.57 3.39 C 2.47 2.61 2.59 1.95 2.92 1.42 C 3.25 0.89 3.71 0.64 4.28 0.66 C 4.86 0.68 5.38 0.97 5.86 1.52 C 6.34 2.08 6.62 2.75 6.72 3.53 C 6.82 4.32 6.7 4.98 6.36 5.53 C 6.02 6.07 5.56 6.33 5 6.3 L 5 6.3 Z M 4.85 9.35 C 5.22 9.35 5.59 9.41 5.94 9.53 C 6.03 9.6 6.16 9.69 6.33 9.8 C 6.49 9.92 6.61 10.01 6.67 10.06 C 6.74 10.12 6.84 10.2 6.97 10.29 C 7.11 10.38 7.2 10.46 7.25 10.53 C 7.31 10.6 7.38 10.68 7.45 10.77 C 7.53 10.87 7.59 10.96 7.64 11.05 C 7.68 11.14 7.71 11.25 7.74 11.36 C 7.76 11.52 7.77 11.69 7.77 11.85 C 7.77 13.44 6.7 14.24 4.55 14.24 C 3.71 14.24 3 14 2.44 13.51 C 1.88 13.03 1.59 12.45 1.59 11.78 C 1.59 11.11 1.92 10.54 2.57 10.06 C 3.23 9.59 3.98 9.35 4.85 9.35 L 4.85 9.35 Z M 13.81 3.29 L 13.81 0 L 12.75 0 L 12.75 3.29 L 9.56 3.29 L 9.56 4.4 L 12.75 4.4 L 12.75 7.76 L 13.81 7.76 L 13.81 4.4 L 17 4.4 L 17 3.29 L 13.81 3.29 Z M 13.81 3.29" />
</svg>