<?xml version="1.0" encoding="utf-8"?>
<!-- Generated by IcoMoon.io -->
<!DOCTYPE svg PUBLIC "-//W3C//DTD SVG 1.1//EN" "http://www.w3.org/Graphics/SVG/1.1/DTD/svg11.dtd">
<svg version="1.1" xmlns="http://www.w3.org/2000/svg" xmlns:xlink="http://www.w3.org/1999/xlink" width="21" height="32" viewBox="0 0 21 32">
<path fill="#c1a753" d="M16 10.667c0-1.472-0.521-2.729-1.563-3.771s-2.299-1.563-3.771-1.563c-1.472 0-2.729 0.521-3.771 1.563s-1.563 2.299-1.563 3.771c0 1.472 0.521 2.729 1.563 3.771s2.299 1.563 3.771 1.563c1.472 0 2.729-0.521 3.771-1.563s1.563-2.299 1.563-3.771v0zM21.333 10.667c0 1.514-0.229 2.757-0.688 3.729l-7.583 16.125c-0.222 0.458-0.552 0.819-0.99 1.083s-0.906 0.396-1.406 0.396c-0.5 0-0.969-0.132-1.406-0.396s-0.76-0.625-0.969-1.083l-7.604-16.125c-0.458-0.972-0.688-2.215-0.688-3.729 0-2.944 1.042-5.458 3.125-7.542s4.597-3.125 7.542-3.125c2.944 0 5.458 1.042 7.542 3.125s3.125 4.597 3.125 7.542v0z"></path>
</svg>
