<?xml version="1.0" encoding="UTF-8" standalone="no"?>
<svg width="30px" height="17px" viewBox="0 0 30 17" version="1.1" xmlns="http://www.w3.org/2000/svg" xmlns:xlink="http://www.w3.org/1999/xlink">
    <!-- Generator: Sketch 3.6.1 (26313) - http://www.bohemiancoding.com/sketch -->
    <title>Page 1</title>
    <desc>Created with Sketch.</desc>
    <defs></defs>
    <g id="Page-1" stroke="none" stroke-width="1" fill="none" fill-rule="evenodd">
        <g id="Da-Nang" transform="translate(-649.000000, -329.000000)" fill="#333333">
            <path d="M678.844362,339.116732 C678.94814,340.007357 678.85302,340.865542 678.559031,341.691312 C678.265042,342.517085 677.837018,343.223951 677.274976,343.811936 C676.712933,344.399919 676.027682,344.858194 675.219204,345.186774 C674.410724,345.515353 673.561188,345.649377 672.670563,345.588849 C671.278424,345.493734 670.07005,344.953316 669.045402,343.967578 C668.020752,342.98184 667.439261,341.797243 667.300913,340.41375 C667.197152,339.453952 667.316043,338.543887 667.657593,337.683529 C667.999142,336.823169 668.51146,336.08604 669.194559,335.472114 L668.273677,334.084308 C667.443581,334.776052 666.790756,335.614783 666.315179,336.60052 C665.839604,337.586256 665.601821,338.641154 665.601821,339.765243 C665.601821,339.998705 665.521838,340.199742 665.361871,340.368355 C665.201907,340.536968 665.005194,340.621274 664.771728,340.621274 L661.451364,340.621274 L660.556425,340.621274 C660.357547,342.039352 659.713368,343.22395 658.623868,344.1751 C657.534367,345.126251 656.263302,345.601819 654.810637,345.601819 C653.210975,345.601819 651.842635,345.033299 650.705578,343.896241 C649.56852,342.759185 649,341.390844 649,339.791181 C649,338.191519 649.56852,336.82318 650.705578,335.686123 C651.842635,334.549066 653.210975,333.980544 654.810637,333.980544 C655.467797,333.980544 656.124945,334.097274 656.782102,334.33074 L657.093387,333.747081 C656.029828,332.795932 654.715532,332.320364 653.150454,332.320364 L652.320364,332.320364 C652.095547,332.320364 651.900996,332.238219 651.736706,332.073929 C651.572417,331.909639 651.490273,331.71509 651.490273,331.490271 C651.490273,331.265454 651.572417,331.070902 651.736706,330.906615 C651.900996,330.742325 652.095547,330.66018 652.320364,330.66018 L653.980547,330.66018 C654.654999,330.66018 655.281883,330.718545 655.861221,330.835278 C656.440559,330.952011 656.944228,331.11846 657.372245,331.33463 C657.800265,331.5508 658.109382,331.721572 658.299614,331.846951 C658.489843,331.97233 658.710333,332.130132 658.961091,332.320364 L665.601821,332.320364 L667.093391,332.320364 L665.990925,330.66018 L663.111548,330.66018 C662.852143,330.66018 662.640299,330.562905 662.476009,330.368353 C662.311719,330.173798 662.251193,329.946823 662.294427,329.687419 C662.329015,329.488541 662.428452,329.324254 662.592739,329.194552 C662.757029,329.06485 662.942935,329 663.150459,329 L666.431911,329 C666.717257,329 666.946394,329.121053 667.11933,329.363165 L668.027242,330.725033 L669.505843,329.246432 C669.670133,329.082142 669.869005,329 670.102471,329 L671.412458,329 C671.637275,329 671.831827,329.082142 671.996117,329.246432 C672.160404,329.410722 672.242549,329.605274 672.242549,329.83009 L672.242549,331.490271 C672.242549,331.71509 672.160404,331.909639 671.996117,332.073929 C671.831827,332.238219 671.637275,332.320364 671.412458,332.320364 L669.090798,332.320364 L670.582365,334.551233 C671.7151,334.006483 672.90402,333.850842 674.149164,334.084308 C675.385659,334.309124 676.440557,334.890615 677.313887,335.828794 C678.187208,336.766974 678.697382,337.862945 678.844362,339.116732 L678.844362,339.116732 Z M654.810637,343.941637 C655.805023,343.941637 656.682662,343.628194 657.443582,343.0013 C658.204502,342.374405 658.684394,341.58107 658.883272,340.621274 L654.810637,340.621274 C654.507999,340.621274 654.270213,340.487249 654.097277,340.219199 C653.941636,339.942499 653.937313,339.670128 654.084308,339.402078 L655.990923,335.80934 C655.584521,335.696931 655.191097,335.640727 654.810637,335.640727 C653.669257,335.640727 652.692181,336.04712 651.879378,336.859924 C651.066577,337.672725 650.660182,338.649801 650.660182,339.791181 C650.660182,340.932562 651.066577,341.909641 651.879378,342.722441 C652.692181,343.535243 653.669257,343.941637 654.810637,343.941637 L654.810637,343.941637 Z M673.072639,343.941637 C674.214019,343.941637 675.191098,343.535243 676.003899,342.722441 C676.8167,341.909641 677.223096,340.932562 677.223096,339.791181 C677.223096,338.649801 676.8167,337.672725 676.003899,336.859924 C675.191098,336.04712 674.214019,335.640727 673.072639,335.640727 C672.55383,335.640727 672.030704,335.744488 671.50325,335.952012 L673.760057,339.324256 C673.889763,339.523134 673.932994,339.734978 673.88976,339.959794 C673.846526,340.184611 673.729796,340.357547 673.539567,340.4786 C673.409862,340.573717 673.254224,340.621274 673.072639,340.621274 C672.77,340.621274 672.540864,340.495895 672.38522,340.245137 L670.128409,336.872893 C669.324255,337.694343 668.922185,338.667096 668.922185,339.791181 C668.922185,340.932562 669.328578,341.909641 670.141382,342.722441 C670.954182,343.535243 671.931258,343.941637 673.072639,343.941637 L673.072639,343.941637 Z" id="Page-1"></path>
        </g>
    </g>
</svg>