<?xml version="1.0" encoding="UTF-8" standalone="no"?>
<svg width="34px" height="34px" viewBox="0 0 34 34" version="1.1" xmlns="http://www.w3.org/2000/svg" xmlns:xlink="http://www.w3.org/1999/xlink" xmlns:sketch="http://www.bohemiancoding.com/sketch/ns">
    <!-- Generator: Sketch 3.5.2 (25235) - http://www.bohemiancoding.com/sketch -->
    <title>Page 1</title>
    <desc>Created with Sketch.</desc>
    <defs></defs>
    <g id="Page-1" stroke="none" stroke-width="1" fill="none" fill-rule="evenodd" sketch:type="MSPage">
        <g id="Rooms_Detail_Fullscreen" sketch:type="MSArtboardGroup" transform="translate(-1543.000000, -397.000000)" fill="#FFFFFF">
            <path d="M1565.2636,413.146444 L1557.86611,405.748954 C1557.34449,405.227333 1556.81102,405.227333 1556.26569,405.748954 C1555.72036,406.270575 1555.73221,406.792187 1556.30126,407.313808 L1562.84519,413.92887 L1556.30126,420.543933 C1555.73221,421.065554 1555.72036,421.587166 1556.26569,422.108787 C1556.81102,422.630407 1557.34449,422.630407 1557.86611,422.108787 L1565.2636,414.711297 C1565.5007,414.521616 1565.61925,414.26081 1565.61925,413.92887 C1565.61925,413.59693 1565.5007,413.336124 1565.2636,413.146444 L1565.2636,413.146444 Z M1560,397 C1555.30542,397 1551.29848,398.659678 1547.97908,401.979079 C1544.65968,405.298481 1543,409.305417 1543,414 C1543,418.694583 1544.65968,422.701519 1547.97908,426.020921 C1551.29848,429.340323 1555.30542,431 1560,431 C1564.69458,431 1568.70152,429.340323 1572.02092,426.020921 C1575.34032,422.701519 1577,418.694583 1577,414 C1577,409.305417 1575.34032,405.298481 1572.02092,401.979079 C1568.70152,398.659678 1564.69458,397 1560,397 L1560,397 Z M1560.03557,428.723849 C1555.98115,428.723849 1552.50769,427.289415 1549.61506,424.420504 C1546.72244,421.551589 1545.27615,418.089979 1545.27615,414.035567 C1545.27615,409.981151 1546.72244,406.507686 1549.61506,403.615063 C1552.50769,400.722439 1555.98115,399.276151 1560.03557,399.276151 C1564.08998,399.276151 1567.55159,400.722439 1570.4205,403.615063 C1573.28941,406.507686 1574.72385,409.981151 1574.72385,414.035567 C1574.72385,418.089979 1573.28941,421.551589 1570.4205,424.420504 C1567.55159,427.289415 1564.08998,428.723849 1560.03557,428.723849 L1560.03557,428.723849 Z" id="Page-1" sketch:type="MSShapeGroup"></path>
        </g>
    </g>
</svg>