<?xml version="1.0" encoding="utf-8"?>
<!-- Generated by IcoMoon.io -->
<!DOCTYPE svg PUBLIC "-//W3C//DTD SVG 1.1//EN" "http://www.w3.org/Graphics/SVG/1.1/DTD/svg11.dtd">
<svg version="1.1" xmlns="http://www.w3.org/2000/svg" xmlns:xlink="http://www.w3.org/1999/xlink" width="1024" height="1024" viewBox="0 0 1024 1024">
<g id="icomoon-ignore">
</g>
<path fill="rgb(192, 165, 78)" d="M1002.667 889.173c12.8-12.8 19.627-29.013 21.333-48.64 0.853-19.627-5.973-34.987-21.333-45.227l-188.587-140.8c-15.36-10.24-32.427-16.213-48.64-17.92-17.067-0.853-32.427 5.12-45.227 17.92l-56.32 55.467c-29.867-22.187-61.44-46.933-93.867-74.24-33.28-26.453-64.853-55.467-95.573-86.187s-59.733-62.293-86.187-95.573c-27.307-32.427-52.053-64-74.24-93.867l55.467-56.32c12.8-12.8 18.773-28.16 17.92-45.227-1.707-16.213-7.68-33.28-17.92-48.64l-140.8-188.587c-10.24-15.36-25.6-22.187-45.227-21.333-19.627 1.707-35.84 8.533-48.64 21.333l-93.867 94.72c-26.453 25.6-36.693 54.613-33.28 87.893 4.267 32.427 15.36 65.707 33.28 99.84 0 0 6.827 11.947 20.48 35.84 14.507 23.040 34.133 53.76 59.733 90.453 25.6 37.547 56.32 78.507 92.16 124.587 36.693 45.227 76.8 90.453 121.173 134.827s89.6 84.48 134.827 121.173c46.080 35.84 87.040 66.56 124.587 92.16 36.693 25.6 67.413 45.227 90.453 59.733 23.893 13.653 35.84 20.48 35.84 20.48 34.133 17.92 67.413 29.013 99.84 33.28 33.28 3.413 62.293-6.827 87.893-33.28l94.72-93.867z"></path>
</svg>
