<?xml version="1.0" encoding="UTF-8" standalone="no"?>
<svg width="23px" height="25px" viewBox="0 0 23 25" version="1.1" xmlns="http://www.w3.org/2000/svg" xmlns:xlink="http://www.w3.org/1999/xlink" xmlns:sketch="http://www.bohemiancoding.com/sketch/ns">
    <!-- Generator: Sketch 3.5.2 (25235) - http://www.bohemiancoding.com/sketch -->
    <title>Page 1</title>
    <desc>Created with Sketch.</desc>
    <defs></defs>
    <g id="Page-1" stroke="none" stroke-width="1" fill="none" fill-rule="evenodd" sketch:type="MSPage">
        <g id="Restaurant" sketch:type="MSArtboardGroup" transform="translate(-363.000000, -715.000000)" fill="#C0A54E">
            <path d="M380.6,739.987654 C380.056787,739.987654 379.350621,739.81564 378.481481,739.471605 C377.612342,739.12757 376.652681,738.611526 375.602469,737.923457 C374.552258,737.235387 373.456795,736.357208 372.316051,735.288891 C371.175303,734.22057 370.079841,732.962148 369.02963,731.51358 C368.015633,730.137443 367.128399,728.869965 366.367901,727.711111 C365.607404,726.552258 364.991772,725.465848 364.520988,724.451852 C364.013989,723.474071 363.633746,722.56873 363.380247,721.735802 C363.126748,720.902875 363,720.160497 363,719.508642 C363,719.001644 363.081481,718.548974 363.244444,718.150617 C363.407408,717.752261 363.59753,717.408233 363.814815,717.118519 C364.068314,716.865019 364.32181,716.638683 364.575309,716.439504 C364.828808,716.24033 365.04609,716.068314 365.22716,715.923457 L365.390123,715.814815 C365.824693,715.488889 366.322631,715.271605 366.883952,715.162963 C367.445272,715.054321 367.852674,715 368.106173,715 C368.540744,715 368.866667,715.099589 369.083951,715.298767 C369.301235,715.497942 369.464198,715.724279 369.57284,715.977778 C369.681481,716.15885 370.016457,716.85596 370.57778,718.069134 C371.139099,719.282312 371.455968,719.997531 371.528395,720.214815 C371.600822,720.359672 371.64609,720.531688 371.664199,720.730866 C371.682305,720.930041 371.673252,721.120162 371.637037,721.301235 C371.56461,721.518519 371.474074,721.717693 371.365432,721.898765 C371.25679,722.079838 371.111936,722.242797 370.930864,722.387654 L370.822222,722.441975 C370.604938,722.586832 370.360496,722.776954 370.088887,723.012347 C369.817282,723.247737 369.663376,723.510286 369.62716,723.8 C369.590945,723.944857 369.599998,724.098764 369.654319,724.261727 C369.708644,724.424693 369.790123,724.5786 369.898765,724.723457 C370.224691,725.158028 370.677365,725.746499 371.25679,726.488891 C371.836215,727.231279 372.433743,727.982713 373.049383,728.74321 C373.665023,729.503707 374.235388,730.191767 374.760492,730.807407 C375.2856,731.423048 375.638681,731.803291 375.819753,731.948148 C375.96461,732.093005 376.109464,732.201647 376.254321,732.274074 C376.399178,732.346501 376.544032,732.382716 376.688889,732.382716 C376.869961,732.418931 377.032921,732.418931 377.177778,732.382716 C377.322635,732.346501 377.449383,732.274074 377.558025,732.165432 C377.811524,731.948148 377.992593,731.776132 378.101235,731.649381 C378.209877,731.522633 378.264198,731.459259 378.264198,731.459259 L378.318519,731.459259 C378.354734,731.423044 378.463372,731.350617 378.644444,731.241975 C378.825517,731.133333 379.079012,731.079012 379.404938,731.079012 C379.622222,731.079012 379.848559,731.12428 380.083949,731.214813 C380.319342,731.305349 380.545679,731.423044 380.762963,731.567901 C381.378603,731.966257 382.184358,732.500407 383.180249,733.170369 C384.176136,733.840333 384.674074,734.175309 384.674074,734.175309 L384.728395,734.22963 C384.909467,734.374487 385.072427,734.646088 385.217284,735.044444 C385.362141,735.442801 385.289714,735.913577 385,736.45679 C384.855143,736.746504 384.628809,737.099586 384.320986,737.516049 C384.013166,737.932512 383.660085,738.321809 383.261728,738.683951 C382.863372,739.046092 382.437861,739.353908 381.985187,739.607407 C381.53251,739.860907 381.070783,739.987654 380.6,739.987654 L380.6,739.987654 Z M368.106173,715.923457 C367.888889,715.923457 367.55391,715.968725 367.101236,716.059261 C366.648559,716.149794 366.259261,716.303704 365.933333,716.520988 L365.77037,716.683951 C365.589299,716.792593 365.390124,716.928393 365.17284,717.091356 C364.955555,717.254323 364.75638,717.46255 364.575309,717.716049 C364.394238,717.933333 364.24033,718.186829 364.11358,718.476543 C363.986831,718.766257 363.923457,719.110286 363.923457,719.508642 C363.923457,720.124282 364.050205,720.821395 364.303704,721.600002 C364.557203,722.378605 364.919339,723.238677 365.390123,724.180247 C365.860908,725.121816 366.458433,726.153905 367.182716,727.276543 C367.906998,728.399182 368.758021,729.630445 369.735802,730.97037 C370.822229,732.382723 371.917691,733.604933 373.02222,734.637039 C374.126753,735.669141 375.167898,736.511108 376.145679,737.162963 C377.12346,737.814818 378.001642,738.294649 378.780245,738.602469 C379.558852,738.91029 380.165429,739.064198 380.6,739.064198 C380.925926,739.064198 381.279011,738.955557 381.659261,738.738272 C382.039508,738.520987 382.392593,738.267491 382.718519,737.977778 C383.044444,737.65185 383.334155,737.316874 383.587654,736.97284 C383.841153,736.628805 384.040328,736.311936 384.185185,736.022222 C384.330042,735.696296 384.366254,735.442801 384.293827,735.261728 C384.2214,735.080656 384.167079,734.972018 384.130864,734.935802 C383.986007,734.82716 383.442804,734.45597 382.501235,733.82222 C381.559665,733.188474 380.817287,732.690536 380.274074,732.328395 C380.129217,732.219753 379.984363,732.138273 379.839506,732.083949 C379.694649,732.029628 379.549795,732.002469 379.404938,732.002469 C379.260081,732.002469 379.151439,732.020575 379.079012,732.05679 C379.006586,732.093005 378.952265,732.129217 378.916049,732.165432 C378.879834,732.201647 378.798354,732.283127 378.671603,732.409875 C378.544855,732.536626 378.37284,732.690533 378.155556,732.871605 C377.938272,733.052677 377.702882,733.179425 377.449383,733.251852 C377.195884,733.324279 376.942388,733.342388 376.688889,733.306173 C376.43539,733.306173 376.172841,733.251852 375.901236,733.14321 C375.629628,733.034568 375.385185,732.871605 375.167901,732.654321 C374.986829,732.473249 374.624695,732.056794 374.081481,731.404938 C373.538268,730.753083 372.940744,730.046917 372.288889,729.28642 C371.673249,728.489707 371.066668,727.720168 370.469138,726.977776 C369.871603,726.235388 369.427986,725.665023 369.138272,725.266667 C368.957199,725.013168 368.830452,724.750619 368.758025,724.479011 C368.685598,724.207406 368.667489,723.926751 368.703704,723.637037 C368.739919,723.419753 368.821399,723.202469 368.94815,722.985185 C369.074898,722.767901 369.210698,722.586832 369.355556,722.441975 C369.500413,722.260903 369.654319,722.116049 369.817286,722.007407 C369.980249,721.898765 370.134155,721.790123 370.279012,721.681481 L370.387654,721.62716 C370.604938,721.446088 370.71358,721.237861 370.71358,721.002467 C370.71358,720.767078 370.695474,720.613168 370.659259,720.540741 C370.586832,720.359668 370.279016,719.671612 369.735802,718.476543 C369.192589,717.281475 368.866667,716.575309 368.758025,716.358025 C368.685598,716.213168 368.604115,716.104526 368.513582,716.032099 C368.423046,715.959672 368.287245,715.923457 368.106173,715.923457 L368.106173,715.923457 Z" id="Page-1" sketch:type="MSShapeGroup"></path>
        </g>
    </g>
</svg>