<?xml version="1.0" encoding="UTF-8" standalone="no"?>
<svg width="34px" height="34px" viewBox="0 0 34 34" version="1.1" xmlns="http://www.w3.org/2000/svg" xmlns:xlink="http://www.w3.org/1999/xlink" xmlns:sketch="http://www.bohemiancoding.com/sketch/ns">
    <!-- Generator: Sketch 3.5.2 (25235) - http://www.bohemiancoding.com/sketch -->
    <title>Page 1</title>
    <desc>Created with Sketch.</desc>
    <defs></defs>
    <g id="Page-1" stroke="none" stroke-width="1" fill="none" fill-rule="evenodd" sketch:type="MSPage">
        <g id="Rooms_Detail_Fullscreen" sketch:type="MSArtboardGroup" transform="translate(-33.000000, -397.000000)" fill="#FFFFFF">
            <path d="M55.2635983,413.146444 L47.8661088,405.748954 C47.3444879,405.227333 46.8110219,405.227333 46.2656881,405.748954 C45.7203588,406.270575 45.732213,406.792187 46.3012552,407.313808 L52.8451883,413.92887 L46.3012552,420.543933 C45.732213,421.065554 45.7203588,421.587166 46.2656881,422.108787 C46.8110219,422.630407 47.3444879,422.630407 47.8661088,422.108787 L55.2635983,414.711297 C55.5007004,414.521616 55.6192469,414.26081 55.6192469,413.92887 C55.6192469,413.59693 55.5007004,413.336124 55.2635983,413.146444 L55.2635983,413.146444 Z M50,397 C45.3054166,397 41.298481,398.659678 37.9790795,401.979079 C34.6596766,405.298481 33,409.305417 33,414 C33,418.694583 34.6596766,422.701519 37.9790795,426.020921 C41.298481,429.340323 45.3054166,431 50,431 C54.6945834,431 58.701519,429.340323 62.0209205,426.020921 C65.340322,422.701519 67,418.694583 67,414 C67,409.305417 65.340322,405.298481 62.0209205,401.979079 C58.701519,398.659678 54.6945834,397 50,397 L50,397 Z M50.0355671,428.723849 C45.9811511,428.723849 42.507686,427.289415 39.6150628,424.420504 C36.7224404,421.551589 35.2761506,418.089979 35.2761506,414.035567 C35.2761506,409.981151 36.7224404,406.507686 39.6150628,403.615063 C42.507686,400.722439 45.9811511,399.276151 50.0355671,399.276151 C54.0899786,399.276151 57.5515895,400.722439 60.4205044,403.615063 C63.2894147,406.507686 64.7238494,409.981151 64.7238494,414.035567 C64.7238494,418.089979 63.2894147,421.551589 60.4205044,424.420504 C57.5515895,427.289415 54.0899786,428.723849 50.0355671,428.723849 L50.0355671,428.723849 Z" id="Page-1" sketch:type="MSShapeGroup" transform="translate(50.000000, 414.000000) scale(-1, 1) translate(-50.000000, -414.000000) "></path>
        </g>
    </g>
</svg>