<?xml version="1.0" encoding="UTF-8" standalone="no"?>
<svg width="26px" height="18px" viewBox="0 0 26 18" version="1.1" xmlns="http://www.w3.org/2000/svg" xmlns:xlink="http://www.w3.org/1999/xlink" xmlns:sketch="http://www.bohemiancoding.com/sketch/ns">
    <!-- Generator: Sketch 3.5.2 (25235) - http://www.bohemiancoding.com/sketch -->
    <title>Group</title>
    <desc>Created with Sketch.</desc>
    <defs></defs>
    <g id="Page-1" stroke="none" stroke-width="1" fill="none" fill-rule="evenodd" sketch:type="MSPage">
        <g id="Home_Slider_2" sketch:type="MSArtboardGroup" transform="translate(-1389.000000, -13.000000)" fill="#FFFFFF">
            <g id="Hotel-bell-ringing" sketch:type="MSLayerGroup" transform="translate(1389.000000, 13.000000)">
                <g id="Capa_1" sketch:type="MSShapeGroup">
                    <g id="Group">
                        <path d="M12.7205631,6.35375229 C7.83231068,6.90704587 6.5083301,10.958367 6.45431068,11.1303578 C6.37967638,11.367 6.51565049,11.6185046 6.75730744,11.6917431 C6.80215534,11.7052018 6.84742395,11.7114771 6.89185113,11.7114771 C7.08722977,11.7114771 7.26847249,11.5875413 7.32888673,11.3944128 C7.3403301,11.358 8.52471845,7.73289908 12.8253204,7.24607339 C13.0761489,7.21775229 13.256466,6.99456881 13.2276052,6.74851376 C13.1988285,6.50237615 12.970466,6.32493578 12.7205631,6.35375229 L12.7205631,6.35375229 Z" id="Shape"></path>
                        <path d="M20.4879159,14.7805596 L18.8078447,14.7805596 L18.8078447,13.507844 L21.1579417,13.507844 C21.3570227,13.507844 21.5332168,13.3820917 21.5936311,13.1961468 C21.7743689,12.6441743 21.8608673,12.1053303 21.8608673,11.5493119 C21.8608673,7.94708257 18.4920583,5.06840367 13.9955728,4.62112844 L14.742,2.77266055 C15.2458447,2.52743119 15.5904919,2.06711009 15.5904919,1.53363303 C15.5904919,0.74633945 14.8486084,0.105522936 13.9370097,0.105522936 L11.6097994,0.105522936 C10.6976958,0.105522936 9.95539159,0.745926606 9.95539159,1.53363303 C9.95539159,2.0559633 10.2853981,2.50819266 10.7708997,2.75738532 L11.5292751,4.63508257 C7.2401165,5.13586239 3.7074822,8.14788991 3.7074822,11.5493945 C3.7074822,12.1026881 3.79355987,12.6703486 3.95511327,13.190367 C4.01367638,13.3789541 4.19079612,13.507844 4.39265372,13.507844 L6.44295146,13.507844 L6.44295146,14.7805596 L5.04248544,14.7805596 C4.03286084,14.7805596 3.2118835,15.4856147 3.2118835,16.352422 L3.2118835,16.9138073 C3.2118835,17.4805596 3.81510032,17.9242844 4.58483495,17.9242844 L20.9460712,17.9242844 C21.7163107,17.9242844 22.3190227,17.4805596 22.3190227,16.9138073 L22.3190227,16.352422 C22.3185178,15.4861101 21.4975405,14.7805596 20.4879159,14.7805596 L20.4879159,14.7805596 Z M11.6093786,1.00362385 L13.936589,1.00362385 C14.3366019,1.00362385 14.6747702,1.24612844 14.6747702,1.53355046 C14.6747702,1.82055963 14.3366019,2.06306422 13.936589,2.06306422 L11.6093786,2.06306422 C11.208945,2.06306422 10.8702718,1.82055963 10.8702718,1.53355046 C10.8702718,1.24612844 11.2085243,1.00362385 11.6093786,1.00362385 L11.6093786,1.00362385 Z M11.8377411,2.96124771 L13.6812168,2.96124771 L13.0340777,4.56366055 C12.9466537,4.56184404 12.8615016,4.55375229 12.773657,4.55375229 C12.6770615,4.55375229 12.5818964,4.56316514 12.4858058,4.56588991 L11.8377411,2.96124771 L11.8377411,2.96124771 Z M4.66308738,12.1677523 C4.63565696,11.9624862 4.62185761,11.754578 4.62185761,11.5493119 C4.62185761,8.30146789 8.43089968,5.45193578 12.7731521,5.45193578 C17.3552104,5.45193578 20.9450615,8.13038532 20.9450615,11.5493119 C20.9450615,11.7608532 20.9304207,11.9656239 20.9006343,12.1699817 C20.8649579,12.4147156 20.6073139,12.6096606 20.3546343,12.6096606 L5.20126214,12.6096606 C4.94866667,12.6096606 4.69649191,12.4138073 4.66308738,12.1677523 L4.66308738,12.1677523 Z M7.35774757,13.507844 L17.8925437,13.507844 L17.8925437,14.7805596 L7.35774757,14.7805596 L7.35774757,13.507844 L7.35774757,13.507844 Z M20.9455663,17.0260183 L4.58441424,17.0260183 C4.29976052,17.0260183 4.14182524,16.9173578 4.12676375,16.9137248 L4.12676375,16.3523394 C4.12676375,15.9872202 4.54596117,15.6786606 5.04206472,15.6786606 L20.4879159,15.6786606 C20.9840194,15.6786606 21.4032168,15.9872202 21.4032168,16.3523394 L21.4105372,16.8795413 C21.3881553,16.9173578 21.2302201,17.0260183 20.9455663,17.0260183 L20.9455663,17.0260183 Z" id="Shape"></path>
                        <path d="M3.66860841,6.64290826 C3.80820065,6.64290826 3.94552104,6.58048624 4.03563754,6.46282569 C4.18709385,6.26433028 4.14544337,5.98277064 3.94316505,5.83406422 L0.816012945,3.53881651 C0.613229773,3.39019266 0.326809061,3.43106422 0.175268608,3.62955963 C0.0237281553,3.82805505 0.0654627832,4.10961468 0.2677411,4.2583211 L3.3948932,6.55365138 C3.4768479,6.61376147 3.57344337,6.64290826 3.66860841,6.64290826 L3.66860841,6.64290826 Z" id="Shape"></path>
                        <path d="M6.08315858,3.74804587 C6.17327508,3.86033945 6.30739806,3.9187156 6.4424466,3.9187156 C6.54173463,3.9187156 6.64194822,3.88725688 6.72575405,3.82219266 C6.92441424,3.66861468 6.95781877,3.38614679 6.80122977,3.19169725 L4.38121036,0.184954128 C4.2247055,-0.00999082569 3.9359288,-0.0427706422 3.73869903,0.110889908 C3.54003883,0.26446789 3.5066343,0.54693578 3.6632233,0.741385321 L6.08315858,3.74804587 L6.08315858,3.74804587 Z" id="Shape"></path>
                        <path d="M19.6380777,3.98113761 C19.7776699,3.98113761 19.9149903,3.9187156 20.0051068,3.80105505 L22.3441812,0.731889908 C22.4956375,0.533394495 22.4539871,0.251834862 22.2517087,0.10312844 C22.0489256,-0.0454954128 21.7625049,-0.00421100917 21.6114693,0.19387156 L19.2723948,3.2630367 C19.1209385,3.46153211 19.162589,3.74309174 19.3648673,3.89179817 C19.4467379,3.95190826 19.5428285,3.98113761 19.6380777,3.98113761 L19.6380777,3.98113761 Z" id="Shape"></path>
                        <path d="M25.8383625,3.59983486 C25.6813528,3.40579817 25.3944272,3.37211009 25.1953463,3.52577064 L22.131301,5.90102752 C21.9326408,6.0546055 21.8992362,6.33707339 22.0558252,6.53201835 C22.1464466,6.64431193 22.2800647,6.70268807 22.415534,6.70268807 C22.514822,6.70268807 22.6150356,6.67122936 22.6988414,6.60616514 L25.7628867,4.23090826 C25.9614628,4.07683486 25.9948673,3.79477982 25.8383625,3.59983486 L25.8383625,3.59983486 Z" id="Shape"></path>
                    </g>
                </g>
            </g>
        </g>
    </g>
</svg>