<?xml version="1.0" encoding="utf-8"?>
<!-- Generator: Avocode 2.5.4 - http://avocode.com -->
<svg height="15" width="15" xmlns:xlink="http://www.w3.org/1999/xlink" xmlns="http://www.w3.org/2000/svg" viewBox="0 0 15 15">
    <path fill="#ffffff" fill-rule="evenodd" d="M 10.38 6.35 C 10.38 5.23 9.99 4.28 9.2 3.49 C 8.41 2.7 7.46 2.31 6.35 2.31 C 5.23 2.31 4.28 2.7 3.49 3.49 C 2.7 4.28 2.31 5.23 2.31 6.35 C 2.31 7.46 2.7 8.41 3.49 9.2 C 4.28 9.99 5.23 10.38 6.35 10.38 C 7.46 10.38 8.41 9.99 9.2 9.2 C 9.99 8.41 10.38 7.46 10.38 6.35 L 10.38 6.35 Z M 15 13.85 C 15 14.16 14.89 14.43 14.66 14.66 C 14.43 14.89 14.16 15 13.85 15 C 13.52 15 13.25 14.89 13.03 14.66 L 9.94 11.57 C 8.87 12.32 7.67 12.69 6.35 12.69 C 5.49 12.69 4.66 12.53 3.88 12.19 C 3.1 11.86 2.42 11.41 1.85 10.84 C 1.28 10.27 0.83 9.6 0.5 8.81 C 0.17 8.03 0 7.21 0 6.35 C 0 5.49 0.17 4.66 0.5 3.88 C 0.83 3.1 1.28 2.42 1.85 1.85 C 2.42 1.28 3.1 0.83 3.88 0.5 C 4.66 0.17 5.49 0 6.35 0 C 7.21 0 8.03 0.17 8.81 0.5 C 9.6 0.83 10.27 1.28 10.84 1.85 C 11.41 2.42 11.86 3.1 12.19 3.88 C 12.53 4.66 12.69 5.49 12.69 6.35 C 12.69 7.67 12.32 8.87 11.57 9.94 L 14.67 13.03 C 14.89 13.26 15 13.53 15 13.85 L 15 13.85 Z M 15 13.85" />
</svg>