<?xml version="1.0" encoding="utf-8"?>
<!-- Generator: Avocode 2.5.4 - http://avocode.com -->
<svg height="16" width="16" xmlns:xlink="http://www.w3.org/1999/xlink" xmlns="http://www.w3.org/2000/svg" viewBox="0 0 16 16">
    <path fill="#c0a54e" fill-rule="evenodd" d="M 1.03 12.13 L 3.39 12.13 C 3.45 12.19 3.86 12.53 4.61 13.14 C 5.37 13.76 6.1 14.36 6.82 14.94 C 7.54 15.52 7.9 15.82 7.9 15.82 C 8.14 15.96 8.35 16.02 8.55 16 C 8.94 15.96 9.18 15.73 9.29 15.32 L 9.29 8 L 9.29 0.69 C 9.18 0.27 8.94 0.05 8.55 0 C 8.35 -0.02 8.14 0.05 7.9 0.19 C 5.02 2.61 3.52 3.88 3.39 4 L 1.03 4 C 0.75 4 0.51 4.1 0.31 4.3 C 0.1 4.5 0 4.73 0 5 L 0 5.13 L 0 11 L 0 11.13 C 0 11.4 0.1 11.63 0.31 11.83 C 0.51 12.03 0.75 12.13 1.03 12.13 L 1.03 12.13 Z M 10.87 9.75 C 10.74 9.82 10.66 9.91 10.61 10.04 C 10.57 10.16 10.58 10.29 10.65 10.41 C 10.75 10.6 10.9 10.69 11.1 10.69 C 11.18 10.69 11.27 10.68 11.35 10.66 C 11.87 10.39 12.28 10.02 12.58 9.55 C 12.88 9.08 13.03 8.57 13.03 8 C 13.03 7.44 12.88 6.93 12.58 6.46 C 12.28 5.99 11.87 5.62 11.35 5.35 C 11.23 5.29 11.09 5.28 10.95 5.33 C 10.81 5.38 10.71 5.47 10.65 5.6 C 10.58 5.72 10.57 5.85 10.61 5.97 C 10.66 6.1 10.74 6.19 10.87 6.25 C 11.62 6.63 12 7.21 12 8 C 12 8.8 11.62 9.38 10.87 9.75 L 10.87 9.75 Z M 10.16 13.75 C 10.23 14.02 10.4 14.16 10.68 14.16 C 10.7 14.16 10.73 14.15 10.77 14.13 C 12.28 13.86 13.53 13.14 14.52 11.99 C 15.51 10.83 16 9.5 16 8 C 16 6.5 15.51 5.18 14.52 4.02 C 13.53 2.86 12.28 2.15 10.77 1.88 C 10.65 1.84 10.52 1.86 10.4 1.94 C 10.28 2.02 10.21 2.13 10.18 2.27 C 10.15 2.4 10.17 2.53 10.24 2.64 C 10.32 2.76 10.43 2.83 10.58 2.85 C 11.85 3.1 12.9 3.71 13.73 4.68 C 14.55 5.64 14.97 6.75 14.97 8 C 14.97 9.25 14.55 10.36 13.73 11.33 C 12.9 12.3 11.85 12.91 10.58 13.16 C 10.43 13.18 10.32 13.25 10.24 13.36 C 10.17 13.48 10.14 13.61 10.16 13.75 L 10.16 13.75 Z M 10.16 13.75" />
</svg>