<?xml version="1.0" encoding="UTF-8" standalone="no"?>
<svg width="81px" height="70px" viewBox="0 0 81 70" version="1.1" xmlns="http://www.w3.org/2000/svg" xmlns:xlink="http://www.w3.org/1999/xlink" xmlns:sketch="http://www.bohemiancoding.com/sketch/ns">
    <!-- Generator: Sketch 3.5.2 (25235) - http://www.bohemiancoding.com/sketch -->
    <title>chef-hat-on-a-plate-from-side-view</title>
    <desc>Created with Sketch.</desc>
    <defs></defs>
    <g id="Page-1" stroke="none" stroke-width="1" fill="none" fill-rule="evenodd" sketch:type="MSPage">
        <g id="Restaurant" sketch:type="MSArtboardGroup" transform="translate(-1235.000000, -109.000000)" fill="#FFFFFF">
            <g id="chef-hat-on-a-plate-from-side-view" sketch:type="MSLayerGroup" transform="translate(1235.000000, 109.000000)">
                <g id="Capa_1" sketch:type="MSShapeGroup">
                    <g id="Group">
                        <path d="M23.5661102,33.3758282 L23.5661102,50.758589 C23.5661102,52.1757669 24.7047874,53.3230368 26.1077244,53.3230368 L59.7174094,53.3230368 C61.1205591,53.3230368 62.256685,52.1755521 62.256685,50.758589 L62.256685,32.0550613 C65.3219291,30.5019632 67.9035118,28.3613804 69.4422992,25.436411 C72.6112913,19.4151227 72.8583307,13.5821472 70.1411102,9.01432515 C67.4315433,4.46260736 62.1378425,1.85177914 55.6170236,1.85177914 C50.953252,1.85177914 46.7790945,3.91742331 43.3605118,6.53447853 C40.3061102,3.12165644 34.4124567,0.00687116564 28.1148661,0.172852761 C24.0465827,0.280214724 18.280063,1.80067485 13.8894803,8.45067485 C11.630622,11.8761656 10.9377638,15.4934049 11.8296142,19.2083436 C13.5201969,26.2280982 20.594622,31.4499693 23.5661102,33.3758282 L23.5661102,33.3758282 Z M18.1208268,11.2981288 C20.6749843,7.42751534 24.0825118,5.41168712 28.2458268,5.30432515 C32.7809764,5.19696319 37.3590709,7.47861963 39.5552126,9.92861963 C36.0894331,13.4700613 33.997252,16.8953374 33.8207953,17.1946626 C33.0920079,18.4033436 33.4738346,19.978773 34.6728898,20.7172086 C35.8721575,21.4532822 37.4322047,21.0702147 38.1631181,19.8565951 C38.2396535,19.7292638 46.0452047,6.98840491 55.6170236,6.98840491 C60.3101339,6.98840491 64.0155118,8.69245399 65.7839055,11.6586503 C67.547622,14.6201227 67.2510472,18.6554294 64.9541339,23.0211963 C60.7400079,31.0233129 42.7724646,31.345184 36.2008346,30.796135 C34.8076772,30.6703067 33.5726929,31.7303988 33.4589528,33.1413497 C33.342874,34.5557362 34.3790787,35.7983436 35.7784016,35.9155828 C36.0613701,35.9392025 37.9794331,36.088865 40.7840315,36.088865 C45.059811,36.088865 51.4056614,35.7309202 57.1732441,34.0294479 L57.1732441,48.186411 L28.6510394,48.186411 L28.6510394,31.930092 C28.6510394,30.9971166 28.1497323,30.138865 27.3431339,29.6847239 C27.2542677,29.6336196 18.3408661,24.5515337 16.7674252,17.9816258 C16.2212598,15.6976074 16.663252,13.5108589 18.1208268,11.2981288 L18.1208268,11.2981288 Z" id="Shape"></path>
                        <path d="M0,56.8831595 L0,61.1218098 C0,61.1218098 12.2418425,60.8847546 14.959063,60.8847546 C17.6724567,60.8847546 21.7702913,69.9907669 24.3837638,69.9907669 L55.8887244,69.9907669 C59.3715118,69.9907669 64.0350709,60.8847546 67.2140551,60.8847546 L80.942811,60.8847546 L80.942811,56.6409509 L0,56.8831595 L0,56.8831595 Z" id="Shape"></path>
                    </g>
                </g>
            </g>
        </g>
    </g>
</svg>