<?xml version="1.0" encoding="utf-8"?>
<!-- Generator: Avocode 2.5.4 - http://avocode.com -->
<svg height="13" width="16" xmlns:xlink="http://www.w3.org/1999/xlink" xmlns="http://www.w3.org/2000/svg" viewBox="0 0 16 13">
    <path fill="#ffffff" fill-rule="evenodd" d="M 15.5 0.25 C 14.86 0.63 14.16 0.89 13.42 1.03 C 12.77 0.34 11.97 0 11.02 0 C 10.13 0 9.36 0.32 8.72 0.97 C 8.07 1.61 7.75 2.39 7.75 3.28 C 7.75 3.53 7.78 3.78 7.84 4.03 C 6.52 3.97 5.27 3.64 4.09 3.03 C 2.92 2.43 1.93 1.61 1.12 0.59 C 0.81 1.09 0.65 1.65 0.65 2.25 C 0.65 3.42 1.14 4.32 2.12 4.97 C 1.6 4.97 1.11 4.83 0.65 4.56 L 0.65 4.63 C 0.65 5.4 0.9 6.08 1.39 6.69 C 1.87 7.29 2.5 7.68 3.27 7.84 C 2.98 7.91 2.69 7.94 2.4 7.94 C 2.19 7.94 1.98 7.92 1.77 7.88 C 2 8.54 2.39 9.09 2.94 9.52 C 3.49 9.94 4.12 10.16 4.82 10.16 C 3.64 11.09 2.29 11.56 0.78 11.56 C 0.53 11.56 0.27 11.55 0 11.53 C 1.54 12.51 3.21 13 5.01 13 C 6.46 13 7.79 12.72 9 12.16 C 10.2 11.59 11.18 10.86 11.94 9.95 C 12.7 9.05 13.28 8.05 13.7 6.95 C 14.11 5.86 14.32 4.76 14.32 3.66 L 14.32 3.25 C 14.96 2.77 15.5 2.2 15.94 1.53 C 15.34 1.8 14.71 1.98 14.07 2.06 C 14.78 1.62 15.25 1.02 15.5 0.25 L 15.5 0.25 Z M 15.5 0.25" />
</svg>