<?xml version="1.0" encoding="UTF-8" standalone="no"?>
<svg width="76px" height="63px" viewBox="0 0 76 63" version="1.1" xmlns="http://www.w3.org/2000/svg" xmlns:xlink="http://www.w3.org/1999/xlink" xmlns:sketch="http://www.bohemiancoding.com/sketch/ns">
    <!-- Generator: Sketch 3.5.2 (25235) - http://www.bohemiancoding.com/sketch -->
    <title>Page 1</title>
    <desc>Created with Sketch.</desc>
    <defs></defs>
    <g id="Page-1" stroke="none" stroke-width="1" fill="none" fill-rule="evenodd" sketch:type="MSPage">
        <g id="Home_Slider_2" sketch:type="MSArtboardGroup" transform="translate(-560.000000, -105.000000)" fill="#000000">
            <path d="M629.45312,135.9375 L635.07812,141.5625 C635.23438,141.71875 635.3125,141.92708 635.3125,142.1875 C635.3125,142.44792 635.23438,142.68229 635.07812,142.89062 L633.04688,144.84375 C632.89062,145 632.68229,145.07812 632.42188,145.07812 C632.16146,145.07812 631.92708,145 631.71875,144.84375 L626.17188,139.21875 L620.54688,144.84375 C620.33854,145 620.11719,145.07812 619.88281,145.07812 C619.64844,145.07812 619.42708,145 619.21875,144.84375 L617.26562,142.89062 C617.05729,142.68229 616.95312,142.44792 616.95312,142.1875 C616.95312,141.92708 617.05729,141.71875 617.26562,141.5625 L622.89062,135.9375 L617.26562,130.3125 C617.05729,130.15625 616.95312,129.94792 616.95312,129.6875 C616.95312,129.42708 617.05729,129.19271 617.26562,128.98438 L619.21875,127.03125 C619.42708,126.875 619.64844,126.79688 619.88281,126.79688 C620.11719,126.79688 620.33854,126.875 620.54688,127.03125 L626.17188,132.65625 L631.71875,127.03125 C631.92708,126.875 632.16146,126.79688 632.42188,126.79688 C632.68229,126.79688 632.89062,126.875 633.04688,127.03125 L635.07812,128.98438 C635.23438,129.19271 635.3125,129.42708 635.3125,129.6875 C635.3125,129.94792 635.23438,130.15625 635.07812,130.3125 L629.45312,135.9375 Z M603.35938,167.1875 L582.42188,152.57812 L582.42188,119.45312 L603.35938,105 C604.71355,105 606.17187,105.45572 607.73438,106.36719 C609.29688,107.27865 610.07812,108.38541 610.07812,109.6875 L610.07812,162.5 C610.07812,163.80209 609.29688,164.90885 607.73438,165.820312 C606.17187,166.731775 604.71355,167.1875 603.35938,167.1875 L603.35938,167.1875 Z M560,146.32812 L560,126.01562 C560,124.71354 560.481766,123.34636 561.445312,121.91406 C562.408859,120.48176 563.593743,119.76562 565,119.76562 L580.07812,119.76562 L580.07812,152.26562 L565,152.26562 C563.593743,152.26562 562.408859,151.60157 561.445312,150.27344 C560.481766,148.94531 560,147.63021 560,146.32812 L560,146.32812 Z" id="Page-1" sketch:type="MSShapeGroup"></path>
        </g>
    </g>
</svg>