<?xml version="1.0" encoding="UTF-8" standalone="no"?>
<svg width="14px" height="17px" viewBox="0 0 14 17" version="1.1" xmlns="http://www.w3.org/2000/svg" xmlns:xlink="http://www.w3.org/1999/xlink">
    <!-- Generator: Sketch 3.6.1 (26313) - http://www.bohemiancoding.com/sketch -->
    <title>Page 1 Copy 12</title>
    <desc>Created with Sketch.</desc>
    <defs></defs>
    <g id="Page-1" stroke="none" stroke-width="1" fill="none" fill-rule="evenodd">
        <path d="M1.03225806,12.3405247 L3.38709677,12.3405247 C3.4516129,12.4030247 3.86021161,12.7415627 4.61290323,13.3561487 C5.36559484,13.9707367 6.10214606,14.5696885 6.82258168,15.1530247 C7.54301523,15.7363609 7.90322581,16.0280247 7.90322581,16.0280247 C8.13978632,16.1738588 8.35483871,16.2363582 8.5483871,16.2155247 C8.93548594,16.1738578 9.18279432,15.9446935 9.29032258,15.5280247 L9.29032258,8.21552473 L9.29032258,0.903024726 C9.18279432,0.486356726 8.93548594,0.257190726 8.5483871,0.215524726 C8.35483871,0.194690726 8.13978632,0.257190726 7.90322581,0.403024726 C5.02149161,2.81970273 3.51612903,4.09052473 3.38709677,4.21552473 L1.03225806,4.21552473 C0.752686865,4.21552473 0.510753652,4.31448273 0.306451613,4.51240073 C0.102149512,4.71031673 0,4.94469073 0,5.21552473 L0,5.34052473 L0,11.2155247 L0,11.3405247 C0,11.6113587 0.102149512,11.8457327 0.306451613,12.0436487 C0.510753652,12.2415667 0.752686865,12.3405247 1.03225806,12.3405247 Z M12.7551857,7.74273859 L13.9502064,8.93775934 C13.9834036,8.97095436 14,9.01521368 14,9.07053942 C14,9.12586516 13.9834036,9.17565663 13.9502064,9.21991595 L13.5186733,9.63485477 C13.4854761,9.66804979 13.4412168,9.68464624 13.3858932,9.68464624 C13.3305674,9.68464624 13.2807738,9.66804979 13.2365145,9.63485477 L12.0580923,8.43983402 L10.8630716,9.63485477 C10.8188102,9.66804979 10.7717848,9.68464624 10.7219912,9.68464624 C10.6721997,9.68464624 10.6251722,9.66804979 10.5809129,9.63485477 L10.165974,9.21991595 C10.1217147,9.17565663 10.099584,9.12586516 10.099584,9.07053942 C10.099584,9.01521368 10.1217147,8.97095436 10.165974,8.93775934 L11.3609948,7.74273859 L10.165974,6.54771784 C10.1217147,6.51452282 10.099584,6.4702635 10.099584,6.41493776 C10.099584,6.35961202 10.1217147,6.30982055 10.165974,6.26556123 L10.5809129,5.85062241 C10.6251722,5.81742739 10.6721997,5.80083094 10.7219912,5.80083094 C10.7717848,5.80083094 10.8188102,5.81742739 10.8630716,5.85062241 L12.0580923,7.04564315 L13.2365145,5.85062241 C13.2807738,5.81742739 13.3305674,5.80083094 13.3858932,5.80083094 C13.4412168,5.80083094 13.4854761,5.81742739 13.5186733,5.85062241 L13.9502064,6.26556123 C13.9834036,6.30982055 14,6.35961202 14,6.41493776 C14,6.4702635 13.9834036,6.51452282 13.9502064,6.54771784 L12.7551857,7.74273859 Z" id="Page-1-Copy-12" fill="#C0A54E"></path>
    </g>
</svg>