<?xml version="1.0" encoding="UTF-8" standalone="no"?>
<svg width="15px" height="15px" viewBox="0 0 15 15" version="1.1" xmlns="http://www.w3.org/2000/svg" xmlns:xlink="http://www.w3.org/1999/xlink">
    <!-- Generator: Sketch 3.6.1 (26313) - http://www.bohemiancoding.com/sketch -->
    <title>Page 1 Copy 2</title>
    <desc>Created with Sketch.</desc>
    <defs></defs>
    <g id="Vn" stroke="none" stroke-width="1" fill="none" fill-rule="evenodd">
        <g id="Home_Slider_1-Form-Contact" transform="translate(-1126.000000, -184.000000)" fill="#C0A54E">
            <g id="Group-8" transform="translate(742.000000, 163.000000)">
                <path d="M384.351731,35.2892317 C384.8309,35.7684009 385.299645,35.7579841 385.757981,35.2579817 L391.320481,29.7579817 L396.882981,35.2579817 C397.341317,35.7579841 397.810061,35.7684009 398.289233,35.2892317 C398.768401,34.8100625 398.757985,34.3413173 398.257981,33.8829817 L392.757981,28.3204817 L398.257981,22.7579817 C398.757985,22.2996457 398.768401,21.8309017 398.289233,21.3517297 C397.810061,20.8725617 397.341317,20.8829777 396.882981,21.3829817 L391.320481,26.8829817 L385.757981,21.3829817 C385.299645,20.8829777 384.8309,20.8725617 384.351731,21.3517297 C383.872561,21.8309017 383.882978,22.2996457 384.382981,22.7579817 L389.882981,28.3204817 L384.382981,33.8829817 C383.882978,34.3413173 383.872561,34.8100625 384.351731,35.2892317 L384.351731,35.2892317 Z" id="Page-1-Copy-2"></path>
            </g>
        </g>
    </g>
</svg>