<?xml version="1.0" encoding="UTF-8" standalone="no"?>
<svg width="27px" height="40px" viewBox="0 0 27 40" version="1.1" xmlns="http://www.w3.org/2000/svg" xmlns:xlink="http://www.w3.org/1999/xlink">
    <!-- Generator: Sketch 3.6.1 (26313) - http://www.bohemiancoding.com/sketch -->
    <title>Page 1 Copy 6</title>
    <desc>Created with Sketch.</desc>
    <defs></defs>
    <g id="Page-1" stroke="none" stroke-width="1" fill="none" fill-rule="evenodd">
        <g id="View-On-Map_Detail" transform="translate(-1047.000000, -352.000000)" fill="#C1A753">
            <path d="M1067,365.333331 C1067,363.493049 1066.34896,361.921881 1065.04687,360.619794 C1063.74479,359.317701 1062.17362,358.666666 1060.33333,358.666666 C1058.49305,358.666666 1056.92188,359.317701 1055.61979,360.619794 C1054.3177,361.921881 1053.66667,363.493049 1053.66667,365.333331 C1053.66667,367.17362 1054.3177,368.744787 1055.61979,370.046875 C1056.92188,371.348968 1058.49305,372.000003 1060.33333,372.000003 C1062.17362,372.000003 1063.74479,371.348968 1065.04687,370.046875 C1066.34896,368.744787 1067,367.17362 1067,365.333331 L1067,365.333331 Z M1073.66667,365.333331 C1073.66667,367.225706 1073.38021,368.779507 1072.80729,369.994795 L1063.32812,390.151042 C1063.05035,390.723961 1062.63802,391.175346 1062.09115,391.505208 C1061.54427,391.835071 1060.95834,392 1060.33333,392 C1059.70833,392 1059.12239,391.835071 1058.57552,391.505208 C1058.02864,391.175346 1057.625,390.723961 1057.36458,390.151042 L1047.85937,369.994795 C1047.28646,368.779507 1047,367.225706 1047,365.333331 C1047,361.652761 1048.30207,358.510432 1050.90625,355.906251 C1053.51043,353.30207 1056.65276,352 1060.33333,352 C1064.01391,352 1067.15624,353.30207 1069.76042,355.906251 C1072.3646,358.510432 1073.66667,361.652761 1073.66667,365.333331 L1073.66667,365.333331 Z" id="Page-1-Copy-6"></path>
        </g>
    </g>
</svg>