<?xml version="1.0" encoding="UTF-8" standalone="no"?>
<svg width="25px" height="57px" viewBox="0 0 25 57" version="1.1" xmlns="http://www.w3.org/2000/svg" xmlns:xlink="http://www.w3.org/1999/xlink">
    <!-- Generator: Sketch 3.6.1 (26313) - http://www.bohemiancoding.com/sketch -->
    <title>Lighthouse Copy 3</title>
    <desc>Created with Sketch.</desc>
    <defs></defs>
    <g id="Vn" stroke="none" stroke-width="1" fill="none" fill-rule="evenodd">
        <g id="View-On-Map_Detail-" transform="translate(-1207.000000, -641.000000)" fill="#C0A54E">
            <g id="Lighthouse-Copy-3" transform="translate(1207.000000, 641.000000)">
                <path d="M17.9824324,15.0839201 L16.8881757,12.7425355 L16.8881757,12.4792899 C16.8881757,11.7806183 16.3491554,11.214497 15.6493243,11.214497 L9.79358108,11.214497 C9.09375,11.214497 8.44222973,11.7806183 8.44222973,12.4792899 L8.44222973,12.7425355 L7.45506757,15.0839201 L8.44222973,17.4268225 L8.44222973,19.3091716 L5.7535473,19.3091716 C5.27888514,19.3091716 4.84425676,19.5739349 4.62702703,19.9951953 C4.40996622,20.4164556 4.44679054,20.9235533 4.72263514,21.3090621 L6.71351351,24.0916065 C6.76807432,24.168 6.83125,24.2700266 6.89983108,24.3314112 L4.87989865,45.6168639 L1.57280405,45.6168639 C0.872972973,45.6168639 0.165202703,46.1155296 0.165202703,46.8142012 L0.165202703,55.7185118 C0.165202703,56.4171834 0.872972973,56.9158491 1.57280405,56.9158491 L23.8701014,56.9158491 C24.5699324,56.9158491 24.9962838,56.4171834 24.9962838,55.7185118 L24.9962838,46.8142012 C24.9962838,46.1155296 24.5699324,45.6168639 23.8701014,45.6168639 L20.5630068,45.6168639 L18.5430743,24.3315799 C18.6116554,24.2701953 18.675,24.1850325 18.7295608,24.1086391 L20.7202703,21.3176627 C20.9961149,20.9321538 21.0329392,20.4208402 20.8157095,19.9995799 C20.5984797,19.5783195 20.1638514,19.3093402 19.6891892,19.3093402 L16.8880068,19.3093402 L16.8880068,17.4268225 L17.9824324,15.0839201 Z" id="Shape"></path>
                <path d="M22.0544764,3.95247781 C22.2656267,3.91734524 22.4591774,3.86464553 22.6351351,3.7943787 C22.6351351,4.11057861 22.5559544,4.42677346 22.3975929,4.74297337 C21.9225068,5.60373914 21.2494764,6.30200432 20.3784831,6.83778746 C19.5074916,7.37356891 18.588125,7.41309453 17.6203547,6.95636095 C16.3358615,6.34152825 15.306522,6.13073112 14.5323057,6.3239645 L14.5059122,6.3239645 L14.453125,6.35031435 C14.1891878,6.43814831 13.9604458,6.44693104 13.7668919,6.3766642 L13.7668919,1.18574334 C13.7668919,0.97494284 13.8504708,0.78171284 14.0176309,0.606046598 C14.184791,0.430380355 14.3915389,0.316198225 14.6378801,0.263498521 C16.3798649,-0.0527013905 17.6819358,0.597255444 18.5441301,2.21338757 C19.30075,3.63628633 20.470853,4.21597802 22.0544764,3.95247781 L22.0544764,3.95247781 Z M13.1334459,0 C13.2742123,0 13.3445946,0.0702651479 13.3445946,0.210798817 L13.3445946,11.5939349 C13.3445946,11.7344682 13.2742123,11.8047337 13.1334459,11.8047337 L12.7111486,11.8047337 C12.5703822,11.8047337 12.5,11.7344682 12.5,11.5939349 L12.5,0.210798817 C12.5,0.0702651479 12.5703822,0 12.7111486,0 L13.1334459,0 Z" id="Page-1"></path>
            </g>
        </g>
    </g>
</svg>